<svg width="75" height="93" viewBox="0 0 75 93" fill="none" xmlns="http://www.w3.org/2000/svg">
<path d="M0.391724 70.013V39.1832L39.7232 61.5082V92.338L0.391724 70.013Z" fill="url(#paint0_linear_1_481)"/>
<path d="M74.802 72.8466V42.0169L39.7227 61.507V92.3368L74.802 72.8466Z" fill="url(#paint1_linear_1_481)"/>
<path d="M0.391724 39.1822L35.4711 19.6921L74.8025 42.0172L39.7232 61.5073L0.391724 39.1822Z" fill="url(#paint2_linear_1_481)"/>
<path d="M34.4968 42.6381L35.2941 42.1952L35.8256 42.461L35.0283 42.9039L36.1799 43.6126L35.4712 44.0556L34.3196 43.3469L31.6621 44.8529L31.3078 44.5871L30.5105 41.0435L31.3078 40.6005L34.4968 42.6381ZM31.9278 44.0556L33.6995 43.0811L31.3078 41.6636L31.3963 41.7522L31.9278 44.0556Z" fill="black"/>
<path d="M39.1022 39.448C39.8109 39.891 40.2538 40.334 40.2538 40.6883C40.2538 41.0427 40.0766 41.3971 39.368 41.7514C38.8365 42.1058 38.1278 42.283 37.5077 42.1944C36.799 42.1058 36.0903 41.9286 35.4703 41.4857L34.673 40.9541C33.9643 40.5111 33.5214 40.0682 33.5214 39.7138C33.4328 39.3595 33.7872 39.0051 34.4072 38.6507C34.9388 38.2963 35.6474 38.1192 36.2675 38.2078C36.9762 38.2963 37.6849 38.4735 38.305 38.9165L39.1022 39.448ZM37.5963 39.3595C37.1534 39.0937 36.7104 38.9165 36.1789 38.8279C35.736 38.7393 35.3817 38.8279 35.0273 39.0937C34.673 39.2709 34.4958 39.5366 34.5844 39.8024C34.673 40.0682 34.9388 40.334 35.4703 40.5997L36.4447 41.2199C36.8876 41.4856 37.4191 41.6628 37.862 41.7514C38.305 41.84 38.6593 41.7514 39.1022 41.4857C39.4565 41.3085 39.6337 41.0427 39.5451 40.7769C39.4565 40.5111 39.1908 40.2454 38.6593 39.9796L37.5963 39.3595Z" fill="black"/>
<path fill-rule="evenodd" clip-rule="evenodd" d="M25.461 32.8045L25.1067 34.9307L25.9039 35.4622L26.2583 33.0703L29.9788 35.4622L30.6875 35.0193L26.967 32.6273L30.9532 32.5387L30.156 32.0071L26.7898 32.0957L25.461 32.8045Z" fill="#36A94C"/>
<path fill-rule="evenodd" clip-rule="evenodd" d="M49.4676 45.56L49.8219 43.4338L49.0247 42.9023L48.6703 45.3828L44.9498 42.9909L44.2411 43.4338L47.9616 45.8258L43.9753 45.9144L44.7726 46.4459L48.1388 46.3573L49.4676 45.56Z" fill="#36A94C"/>
<path d="M40.0782 38.5628L37.9521 36.8796L40.8754 35.1963L41.4955 35.5507L39.1923 36.8796L40.3439 37.7655C40.5211 37.4997 40.7868 37.2339 41.0526 37.0568C41.5841 36.791 42.1156 36.6138 42.7357 36.6138C43.3558 36.6138 43.8873 36.791 44.4188 37.0568C44.9503 37.3225 45.1275 37.6769 45.1275 38.0313C45.1275 38.3856 44.7731 38.74 44.2416 39.0058C43.7101 39.2715 43.1786 39.4487 42.6471 39.5373C42.1156 39.5373 41.5841 39.4487 41.1412 39.2716L41.8499 38.9172C42.1156 39.0944 42.4699 39.0944 42.8243 39.0944C43.1786 39.0944 43.5329 39.0058 43.7987 38.8286C44.153 38.6514 44.3302 38.3856 44.3302 38.2084C44.3302 37.9427 44.153 37.7655 43.7987 37.4997C43.4444 37.3225 43.09 37.2339 42.7357 37.2339C42.3814 37.2339 41.9384 37.3225 41.5841 37.4997C41.3183 37.5883 41.1412 37.7655 40.964 38.0313L40.7868 38.297L40.0782 38.5628Z" fill="black"/>
<path d="M44.2406 25.6283L37.8625 1.35428C37.7739 0.911325 37.5084 0.645551 37.154 0.468368L37.2426 0.291188L36.7111 0.202591C36.5339 0.202591 36.3568 0.29118 36.1796 0.379771L6.68102 17.3893C5.97235 17.8323 5.61801 18.8068 5.88377 19.6927L12.2618 43.9667C12.439 44.4097 12.7048 44.7641 13.0591 44.7641L13.502 44.8527L13.4134 44.6755L43.5319 27.3116C44.152 27.0458 44.4178 26.2485 44.2406 25.6283Z" fill="url(#paint3_linear_1_481)"/>
<path d="M36.6222 0.379462L7.12365 17.4776C6.41497 17.9206 6.06064 18.8951 6.32639 19.781L12.7045 44.055C12.8816 44.7638 13.4131 45.0295 13.9446 44.7638L44.0631 27.3113C44.5946 26.9569 44.8604 26.2482 44.6832 25.628L38.3051 1.26538C38.128 0.379462 37.3309 0.025096 36.6222 0.379462Z" fill="#494855"/>
<path d="M37.5076 1.08597L6.85742 18.8042L13.1469 42.5467L43.7972 24.8285L37.5076 1.08597Z" fill="#494855"/>
<path d="M43.4431 23.6785L12.793 41.3967L13.0587 42.4598L43.7089 24.7416L43.4431 23.6785Z" fill="#494855"/>
<path d="M65.4124 39.1836V38.0319L64.438 38.1205L46.1011 27.5782C45.5696 27.2238 44.5951 27.2238 43.975 27.5782L15.8054 43.9676L13.8566 44.1447V45.385C13.8566 45.5622 14.0337 45.828 14.2995 46.0052L32.9908 56.8133C33.788 57.2563 35.1168 57.2563 35.8255 56.8133L64.7924 39.9809C65.2353 39.8038 65.4124 39.538 65.4124 39.1836Z" fill="url(#paint4_linear_1_481)"/>
<path d="M64.7928 37.2346L46.1015 26.4265C45.57 26.0721 44.5956 26.0721 43.9755 26.4265L14.2998 43.7018C13.7682 44.0562 13.7682 44.5877 14.2998 44.9421L32.991 55.7502C33.7883 56.1932 35.1171 56.1932 35.8257 55.7502L64.7928 38.9179C65.5901 38.3863 65.5901 37.6776 64.7928 37.2346Z" fill="url(#paint5_linear_1_481)"/>
<path d="M55.6689 42.7269L50.1767 39.5377C49.8224 39.3605 49.3795 39.3605 49.0251 39.5377L36.9777 46.5364C36.6233 46.7135 36.6233 46.9793 36.9777 47.2451L42.4699 50.4344C42.8242 50.6116 43.2672 50.6116 43.6215 50.4344L55.6689 43.4357C55.9347 43.2585 55.9347 42.9041 55.6689 42.7269Z" fill="#D5E1D8"/>
<path d="M20.4111 44.8527L19.0823 44.0554C18.9051 43.9668 18.728 43.9668 18.6394 44.0554L17.3106 44.8527C17.1334 44.9413 17.1334 45.0299 17.3106 45.1185L18.6394 45.9158C18.8165 46.0044 18.9937 46.0044 19.0823 45.9158L20.4111 45.1185C20.5882 45.0299 20.5882 44.8527 20.4111 44.8527Z" fill="#57565E"/>
<path d="M22.5376 43.6124L21.1203 42.8151C20.9431 42.7265 20.7659 42.7265 20.6773 42.8151L19.3486 43.6124C19.1714 43.701 19.1714 43.7895 19.3486 43.8781L20.6773 44.6755C20.8545 44.7641 21.0317 44.7641 21.1203 44.6755L22.449 43.8781C22.6262 43.7895 22.6262 43.701 22.5376 43.6124Z" fill="#57565E"/>
<path d="M24.6637 42.372L23.335 41.5747C23.1578 41.4861 22.9806 41.4861 22.8921 41.5747L21.5633 42.372C21.3861 42.4606 21.3861 42.5492 21.5633 42.6378L22.8921 43.4351C23.0692 43.5237 23.2464 43.5237 23.335 43.4351L24.6637 42.6378C24.7523 42.6378 24.7523 42.4606 24.6637 42.372Z" fill="#57565E"/>
<path d="M26.7 41.2194L25.3712 40.422C25.1941 40.3334 25.0169 40.3334 24.9283 40.422L23.5996 41.2194C23.4224 41.308 23.4224 41.3965 23.5996 41.4851L24.9283 42.2825C25.1055 42.371 25.2827 42.371 25.3712 42.2825L26.7 41.4851C26.8772 41.3965 26.8772 41.2194 26.7 41.2194Z" fill="#57565E"/>
<path d="M28.8272 39.8919L27.4984 39.1832C27.3213 39.0946 27.1441 39.0946 27.0555 39.1832L25.7267 39.9805C25.5496 40.0691 25.5496 40.1577 25.7267 40.2462L27.0555 41.0436C27.2327 41.1322 27.4098 41.1322 27.4984 41.0436L28.8272 40.2462C29.0044 40.1577 29.0044 40.0691 28.8272 39.8919Z" fill="#57565E"/>
<path d="M30.9527 38.7391L29.6239 37.9418C29.4468 37.8532 29.2696 37.8532 29.181 37.9418L27.8522 38.7391C27.6751 38.8277 27.6751 38.9163 27.8522 39.0049L29.181 39.8022C29.3582 39.8908 29.5353 39.8908 29.6239 39.8022L30.9527 39.0049C31.0413 38.9163 31.0413 38.8277 30.9527 38.7391Z" fill="#57565E"/>
<path d="M33.0799 37.4987L31.7511 36.7014C31.574 36.6128 31.3968 36.6128 31.3082 36.7014L29.9794 37.4987C29.8023 37.5873 29.8023 37.6759 29.9794 37.7645L31.3082 38.5618C31.4854 38.6504 31.6625 38.6504 31.7511 38.5618L33.0799 37.7645C33.1685 37.6759 33.1685 37.5873 33.0799 37.4987Z" fill="#57565E"/>
<path d="M35.1161 36.2584L33.7873 35.461C33.6102 35.3724 33.433 35.3724 33.3444 35.461L32.0156 36.2584C31.7499 36.347 31.7499 36.5241 31.9271 36.5241L33.2558 37.3215C33.433 37.4101 33.6102 37.4101 33.6988 37.3215L35.0275 36.5241C35.2933 36.5241 35.2933 36.347 35.1161 36.2584Z" fill="#57565E"/>
<path d="M37.2433 35.1067L35.9146 34.3094C35.7374 34.2208 35.5602 34.2208 35.4716 34.3094L34.1429 35.1067C33.9657 35.1953 33.9657 35.2839 34.1429 35.3725L35.4716 36.1698C35.6488 36.2584 35.826 36.2584 35.9146 36.1698L37.2433 35.3725C37.3319 35.2839 37.3319 35.1067 37.2433 35.1067Z" fill="#57565E"/>
<path d="M39.3683 33.8663L37.9509 33.069C37.7738 32.9804 37.5966 32.9804 37.508 33.069L36.1793 33.8663C36.0021 33.9549 36.0021 34.0435 36.1793 34.1321L37.508 34.9294C37.6852 35.018 37.8624 35.018 37.9509 34.9294L39.2797 34.1321C39.4569 34.0435 39.4569 33.9549 39.3683 33.8663Z" fill="#57565E"/>
<path d="M41.4052 32.627L40.0764 31.8297C39.8993 31.7411 39.7221 31.7411 39.6335 31.8297L38.3048 32.627C38.1276 32.7156 38.1276 32.8041 38.3048 32.8927L39.6335 33.69C39.8107 33.7786 39.9879 33.7786 40.0764 33.69L41.4052 32.8927C41.5824 32.8041 41.5824 32.7156 41.4052 32.627Z" fill="#57565E"/>
<path d="M27.9419 42.904L26.6132 42.1066C26.436 42.018 26.2588 42.018 26.1703 42.1066L24.8415 42.904C24.6643 42.9926 24.6643 43.0811 24.8415 43.1697L26.1703 43.9671C26.3474 44.0556 26.5246 44.0556 26.6132 43.9671L27.9419 43.1697C28.1191 43.0811 28.1191 42.9926 27.9419 42.904Z" fill="#57565E"/>
<path d="M29.9783 41.7533L28.6496 40.956C28.4724 40.8674 28.2952 40.8674 28.2066 40.956L26.8779 41.7533C26.7007 41.8419 26.7007 41.9305 26.8779 42.0191L28.2066 42.7278C28.3838 42.8164 28.561 42.8164 28.6496 42.7278L29.9783 41.9305C30.1555 41.9305 30.1555 41.7533 29.9783 41.7533Z" fill="#57565E"/>
<path d="M32.193 40.4237L30.8643 39.6264C30.6871 39.5378 30.5099 39.5378 30.4214 39.6264L29.0926 40.4237C28.9154 40.5123 28.9154 40.6009 29.0926 40.6895L30.4214 41.4868C30.5985 41.5754 30.7757 41.5754 30.8643 41.4868L32.193 40.6895C32.2816 40.6895 32.2816 40.6009 32.193 40.4237Z" fill="#57565E"/>
<path d="M34.231 39.271L32.9022 38.4737C32.7251 38.3851 32.5479 38.3851 32.4593 38.4737L31.1306 39.271C30.9534 39.3596 30.9534 39.4482 31.1306 39.5368L32.4593 40.3341C32.6365 40.4227 32.8137 40.4227 32.9022 40.3341L34.231 39.5368C34.3196 39.4482 34.3196 39.271 34.231 39.271Z" fill="#57565E"/>
<path d="M36.3565 38.0307L35.0277 37.2334C34.8506 37.1448 34.6734 37.1448 34.5848 37.2334L33.256 38.0307C33.0789 38.1193 33.0789 38.2079 33.256 38.2965L34.5848 39.0938C34.762 39.1824 34.9391 39.1824 35.0277 39.0938L36.3565 38.2965C36.4451 38.2965 36.4451 38.1193 36.3565 38.0307Z" fill="#57565E"/>
<path d="M38.3945 36.7903L37.0657 35.993C36.8885 35.9044 36.7114 35.9044 36.6228 35.993L35.294 36.7903C35.1168 36.8789 35.1168 36.9675 35.294 37.0561L36.6228 37.8534C36.7999 37.942 36.9771 37.942 37.0657 37.8534L38.3945 37.0561C38.5716 37.0561 38.5716 36.8789 38.3945 36.7903Z" fill="#57565E"/>
<path d="M40.5195 35.6387L39.1907 34.8413C39.0136 34.7528 38.8364 34.7528 38.7478 34.8413L37.3303 35.6387C37.1531 35.7273 37.1531 35.8158 37.3303 35.9044L38.6592 36.7018C38.8364 36.7904 39.0135 36.7904 39.1021 36.7018L40.4309 35.9044C40.6081 35.8158 40.6081 35.6387 40.5195 35.6387Z" fill="#57565E"/>
<path d="M42.6454 34.3988L41.3167 33.6015C41.1395 33.5129 40.9623 33.5129 40.8738 33.6015L39.545 34.3988C39.3678 34.4874 39.3678 34.576 39.545 34.6646L40.8738 35.4619C41.0509 35.5505 41.2281 35.5505 41.3167 35.4619L42.6454 34.6646C42.8226 34.576 42.8226 34.4874 42.6454 34.3988Z" fill="#57565E"/>
<path d="M44.6845 33.1584L43.3557 32.3611C43.1785 32.2725 43.0014 32.2725 42.9128 32.3611L41.4954 33.1584C41.3183 33.247 41.3183 33.3356 41.4954 33.4242L42.8242 34.2215C43.0014 34.3101 43.1785 34.3101 43.2671 34.2215L44.5959 33.4242C44.8616 33.3356 44.8616 33.247 44.6845 33.1584Z" fill="#57565E"/>
<path d="M46.8976 31.9187L45.4802 31.21C45.3031 31.1214 45.1259 31.1214 45.0373 31.21L43.7086 32.0073C43.5314 32.0959 43.5314 32.1845 43.7086 32.2731L45.0373 32.9818C45.2145 33.0704 45.3917 33.0704 45.4802 32.9818L46.809 32.1845C46.9862 32.0959 46.9862 32.0073 46.8976 31.9187Z" fill="#57565E"/>
<path d="M43.5323 31.3866L42.2035 30.5893C42.0263 30.5007 41.8492 30.5007 41.7606 30.5893L40.4318 31.3866C40.2547 31.4752 40.2547 31.5638 40.4318 31.6524L41.7606 32.4497C41.9378 32.5383 42.1149 32.5383 42.2035 32.4497L43.5323 31.6524C43.7095 31.5638 43.7095 31.4752 43.5323 31.3866Z" fill="#57565E"/>
<path d="M45.6579 30.1469L44.3291 29.4382C44.152 29.3496 43.9748 29.3496 43.8862 29.4382L42.5574 30.2355C42.3803 30.3241 42.3803 30.4126 42.5574 30.5012L43.8862 31.2986C44.0634 31.3872 44.2405 31.3872 44.3291 31.2986L45.6579 30.5012C45.7465 30.4126 45.7465 30.2355 45.6579 30.1469Z" fill="#57565E"/>
<path d="M28.9147 49.7265L27.586 48.9292C27.4088 48.8406 27.2316 48.8406 27.143 48.9292L25.8143 49.7265C25.6371 49.8151 25.6371 49.9037 25.8143 49.9923L27.143 50.7896C27.3202 50.8782 27.4974 50.8782 27.586 50.7896L28.9147 49.9923C29.0919 49.9037 29.0919 49.8151 28.9147 49.7265Z" fill="#57565E"/>
<path d="M31.0419 48.5734L29.7132 47.7761C29.536 47.6875 29.3588 47.6875 29.2702 47.7761L27.9415 48.5734C27.7643 48.662 27.7643 48.7505 27.9415 48.8391L29.2702 49.6364C29.4474 49.725 29.6246 49.725 29.7132 49.6364L31.0419 48.8391C31.1305 48.7505 31.1305 48.5734 31.0419 48.5734Z" fill="#57565E"/>
<path d="M33.1685 47.2449L31.7511 46.5362C31.574 46.4476 31.3968 46.4476 31.3082 46.5362L29.9794 47.2449C29.8023 47.3335 29.8023 47.4221 29.9794 47.5107L31.3082 48.308C31.4854 48.3966 31.6625 48.3966 31.7511 48.308L33.0799 47.5107C33.3456 47.5107 33.3456 47.4221 33.1685 47.2449Z" fill="#57565E"/>
<path d="M35.2054 46.0911L33.8766 45.2938C33.6994 45.2052 33.5223 45.2052 33.4337 45.2938L32.1049 46.0911C31.9278 46.1797 31.9278 46.2683 32.1049 46.3569L33.4337 47.1542C33.6109 47.2428 33.788 47.2428 33.8766 47.1542L35.2054 46.3569C35.3825 46.2683 35.3825 46.1797 35.2054 46.0911Z" fill="#57565E"/>
<path d="M25.8149 44.1438L24.4861 43.3465C24.3089 43.2579 24.1318 43.2579 24.0432 43.3465L22.7144 44.1438C22.5373 44.2324 22.5373 44.321 22.7144 44.4096L24.0432 45.2069C24.2203 45.2955 24.3975 45.2955 24.4861 45.2069L25.8149 44.4096C25.992 44.4096 25.992 44.2324 25.8149 44.1438Z" fill="#57565E"/>
<path d="M48.0501 28.8161L46.7213 28.0188C46.5441 27.9302 46.367 27.9302 46.2784 28.0188L44.5953 28.9933C44.4181 29.0819 44.4181 29.1705 44.5953 29.2591L45.924 30.0564C46.1012 30.145 46.2784 30.145 46.367 30.0564L48.0501 29.0819C48.2272 28.9933 48.2272 28.8161 48.0501 28.8161Z" fill="#57565E"/>
<path d="M48.1383 38.5622L46.8096 37.7648C46.6324 37.6762 46.4552 37.6762 46.3666 37.7648L34.2304 44.7636C34.0532 44.8521 34.0532 44.9407 34.2304 45.0293L35.5592 45.8266C35.7363 45.9152 35.9135 45.9152 36.0021 45.8266L48.1383 38.8279C48.2269 38.8279 48.2269 38.6507 48.1383 38.5622Z" fill="#57565E"/>
<path d="M20.7656 42.1945L20.4112 42.0174C20.2341 41.9288 20.0569 41.9288 19.9683 42.0174L18.551 42.7261C18.3738 42.8147 18.3738 42.9033 18.551 42.9919L18.9053 43.169C19.0825 43.2576 19.2596 43.2576 19.3482 43.169L20.677 42.3717C20.8542 42.3717 20.8542 42.2831 20.7656 42.1945Z" fill="#57565E"/>
<path d="M22.8041 40.9542L22.4497 40.777C22.2726 40.6884 22.0954 40.6884 22.0068 40.777L20.678 41.5744C20.5009 41.6629 20.5009 41.7515 20.678 41.8401L21.0324 42.0173C21.2096 42.1059 21.3867 42.1059 21.4753 42.0173L22.8041 41.22C22.9812 41.22 22.9812 41.0428 22.8041 40.9542Z" fill="#57565E"/>
<path d="M24.9297 39.8035L24.5753 39.6264C24.3982 39.5378 24.221 39.5378 24.1324 39.6264L22.8037 40.4237C22.6265 40.5123 22.6265 40.6009 22.8037 40.6895L23.158 40.8667C23.3352 40.9552 23.5123 40.9552 23.6009 40.8667L24.9297 40.0693C25.1068 39.9807 25.1068 39.8035 24.9297 39.8035Z" fill="#57565E"/>
<path d="M27.055 38.564L26.7007 38.2983C26.5235 38.2097 26.3464 38.2097 26.2578 38.2983L24.929 39.0956C24.7519 39.1842 24.7519 39.2728 24.929 39.3613L25.2834 39.5385C25.4605 39.6271 25.6377 39.6271 25.7263 39.5385L27.055 38.7412C27.2322 38.7412 27.2322 38.6526 27.055 38.564Z" fill="#57565E"/>
<path d="M29.0931 37.3208L28.7388 37.1436C28.5616 37.055 28.3845 37.055 28.2959 37.1436L26.9671 37.9409C26.7899 38.0295 26.7899 38.1181 26.9671 38.2067L27.3214 38.3839C27.4986 38.4725 27.6758 38.4725 27.7644 38.3839L29.0931 37.5866C29.2703 37.498 29.2703 37.4094 29.0931 37.3208Z" fill="#57565E"/>
<path d="M31.3072 36.083L30.8643 35.9058C30.6871 35.8172 30.5099 35.8172 30.4214 35.9058L29.0926 36.6145C28.9154 36.7031 28.9154 36.7917 29.0926 36.8803L29.4469 37.0575C29.6241 37.1461 29.8013 37.1461 29.8899 37.0575L31.2186 36.2602C31.3958 36.2602 31.3958 36.1716 31.3072 36.083Z" fill="#57565E"/>
<path d="M33.3441 34.839L32.9898 34.6618C32.8126 34.5733 32.6354 34.5733 32.5469 34.6618L31.2181 35.4592C31.0409 35.5478 31.0409 35.6363 31.2181 35.7249L31.5724 35.9021C31.7496 35.9907 31.9268 35.9907 32.0153 35.9021L33.3441 35.1048C33.4327 35.1048 33.4327 34.9276 33.3441 34.839Z" fill="#57565E"/>
<path d="M35.4713 33.6894L35.117 33.5122C34.9398 33.4237 34.7626 33.4237 34.674 33.5122L33.3453 34.3096C33.1681 34.3982 33.1681 34.4867 33.3453 34.5753L33.6996 34.7525C33.8768 34.8411 34.054 34.8411 34.1425 34.7525L35.4713 33.9552C35.5599 33.8666 35.5599 33.6894 35.4713 33.6894Z" fill="#57565E"/>
<path d="M37.5086 32.449L37.1543 32.2719C36.9771 32.1833 36.7999 32.1833 36.7114 32.2719L35.294 32.9806C35.1168 33.0692 35.1168 33.1578 35.294 33.2464L35.6483 33.4235C35.8255 33.5121 36.0027 33.5121 36.0913 33.4235L37.42 32.6262C37.6858 32.6262 37.6858 32.5376 37.5086 32.449Z" fill="#57565E"/>
<path d="M39.6348 31.2087L39.2804 31.0315C39.1032 30.9429 38.9261 30.9429 38.8375 31.0315L37.5087 31.8288C37.3316 31.9174 37.3316 32.006 37.5087 32.0946L37.8631 32.2718C38.0402 32.3604 38.2174 32.3604 38.306 32.2718L39.6348 31.4744C39.7233 31.4744 39.7233 31.2973 39.6348 31.2087Z" fill="#57565E"/>
<path d="M41.7602 29.9688L41.4059 29.7916C41.2287 29.703 41.0516 29.703 40.963 29.7916L39.6342 30.589C39.4571 30.6775 39.4571 30.7661 39.6342 30.8547L39.9885 31.0319C40.1657 31.1205 40.3429 31.1205 40.4315 31.0319L41.7602 30.2346C41.9374 30.146 41.9374 30.0574 41.7602 29.9688Z" fill="#57565E"/>
<path d="M43.7982 28.8185L43.4439 28.5528C43.2667 28.4642 43.0895 28.4642 43.0009 28.5528L41.6722 29.3501C41.495 29.4387 41.495 29.5272 41.6722 29.6158L42.0265 29.793C42.2037 29.8816 42.3809 29.8816 42.4694 29.793L43.7982 28.9957C43.9754 28.9957 43.9754 28.8185 43.7982 28.8185Z" fill="#57565E"/>
<path d="M45.9237 27.5766L45.5694 27.3109C45.3922 27.2223 45.215 27.2223 45.1264 27.3109L43.7977 28.1082C43.6205 28.1968 43.6205 28.2853 43.7977 28.3739L44.152 28.5511C44.3292 28.6397 44.5064 28.6397 44.5949 28.5511L45.9237 27.7538C46.1009 27.7538 46.1009 27.6652 45.9237 27.5766Z" fill="#57565E"/>
<path d="M18.6399 43.4349L18.2855 43.2578C18.1083 43.1692 17.9312 43.1692 17.8426 43.2578L16.1595 44.2323C15.9823 44.3209 15.9823 44.4094 16.1595 44.498L16.5138 44.6752C16.691 44.7638 16.8682 44.7638 16.9567 44.6752L18.6399 43.7007C18.7284 43.6121 18.7284 43.5235 18.6399 43.4349Z" fill="#57565E"/>
<path d="M23.7774 45.3842L22.4486 44.5869C22.2714 44.4983 22.0943 44.4983 22.0057 44.5869L19.5253 46.0043C19.3482 46.0929 19.3482 46.1815 19.5253 46.2701L20.8541 47.0674C21.0313 47.156 21.2084 47.156 21.297 47.0674L23.7774 45.6499C23.866 45.5614 23.866 45.4728 23.7774 45.3842Z" fill="#57565E"/>
<path d="M26.9663 46.0039L25.5489 45.2065C25.3718 45.118 25.1946 45.118 25.106 45.2065L21.4741 47.3328C21.2969 47.4213 21.2969 47.5099 21.4741 47.5985L22.8028 48.3958C22.98 48.4844 23.1572 48.4844 23.2457 48.3958L26.8777 46.2697C27.0549 46.1811 27.0549 46.0925 26.9663 46.0039Z" fill="#57565E"/>
<path d="M29.0924 47.2443L27.7637 46.4469C27.5865 46.3583 27.4093 46.3583 27.3207 46.4469L23.6888 48.5731C23.5116 48.6617 23.5116 48.7503 23.6888 48.8389L25.0176 49.6362C25.1947 49.7248 25.3719 49.7248 25.4605 49.6362L29.0924 47.51C29.181 47.4214 29.181 47.2443 29.0924 47.2443Z" fill="#57565E"/>
<path d="M50.1763 29.9692L48.8475 29.1719C48.6703 29.0833 48.4932 29.0833 48.4046 29.1719L45.8356 30.678C45.6585 30.7665 45.6585 30.8552 45.8356 30.9437L47.1644 31.7411C47.3416 31.8296 47.5187 31.8296 47.6073 31.7411L50.1763 30.235C50.2648 30.1464 50.2648 30.0578 50.1763 29.9692Z" fill="#57565E"/>
<path d="M52.3022 31.2096L50.9735 30.4123C50.7963 30.3237 50.6191 30.3237 50.5305 30.4123L46.81 32.5385C46.6328 32.6271 46.6328 32.7157 46.81 32.8043L48.1388 33.6016C48.3159 33.6902 48.4931 33.6902 48.5817 33.6016L52.2136 31.4754C52.3908 31.4754 52.3908 31.2982 52.3022 31.2096Z" fill="#57565E"/>
<path d="M53.454 34.3984L53.0997 34.2212C52.9225 34.1326 52.7454 34.1326 52.6568 34.2212L51.2394 34.9299C51.0623 35.0185 51.0623 35.1071 51.2394 35.1957L51.5938 35.3729C51.771 35.4615 51.9481 35.4615 52.0367 35.3729L53.3655 34.5756C53.5426 34.5756 53.5426 34.4869 53.454 34.3984Z" fill="#57565E"/>
<path d="M54.4291 34.9313L54.0747 34.7541C53.8976 34.6655 53.7204 34.6655 53.6318 34.7541L52.303 35.5514C52.1259 35.64 52.1259 35.7286 52.303 35.8172L52.6574 35.9944C52.8345 36.083 53.0117 36.083 53.1003 35.9944L54.4291 35.1971C54.6062 35.1085 54.6062 35.0199 54.4291 34.9313Z" fill="#57565E"/>
<path d="M45.8362 35.0185L44.5075 34.2212C44.3303 34.1326 44.1531 34.1326 44.0645 34.2212L42.7358 35.0185C42.5586 35.1071 42.5586 35.1957 42.7358 35.2843L44.0645 36.0816C44.2417 36.1702 44.4189 36.1702 44.5075 36.0816L45.8362 35.2843C46.0134 35.1957 46.0134 35.1071 45.8362 35.0185Z" fill="#57565E"/>
<path d="M47.8725 33.7796L46.5437 32.9823C46.3666 32.8937 46.1894 32.8937 46.1008 32.9823L44.772 33.7796C44.5949 33.8682 44.5949 33.9568 44.772 34.0454L46.1008 34.8427C46.278 34.9313 46.4551 34.9313 46.5437 34.8427L47.8725 34.0454C48.0496 33.9568 48.0496 33.8682 47.8725 33.7796Z" fill="#57565E"/>
<path d="M47.9617 36.2584L46.633 35.461C46.4558 35.3724 46.2786 35.3724 46.19 35.461L44.8613 36.2584C44.6841 36.347 44.6841 36.4356 44.8613 36.5241L46.19 37.3215C46.3672 37.4101 46.5444 37.4101 46.633 37.3215L47.9617 36.5241C48.1389 36.4356 48.1389 36.347 47.9617 36.2584Z" fill="#57565E"/>
<path d="M50.0872 35.0185L48.7584 34.2212C48.5813 34.1326 48.4041 34.1326 48.3155 34.2212L46.9868 35.0185C46.8096 35.1071 46.8096 35.1957 46.9868 35.2843L48.3155 36.0816C48.4927 36.1702 48.6699 36.1702 48.7584 36.0816L50.0872 35.2843C50.1758 35.2843 50.1758 35.1071 50.0872 35.0185Z" fill="#57565E"/>
<path d="M52.2138 33.7796L50.7964 32.9823C50.6192 32.8937 50.4421 32.8937 50.3535 32.9823L49.0247 33.7796C48.8476 33.8682 48.8476 33.9568 49.0247 34.0454L50.3535 34.8427C50.5307 34.9313 50.7078 34.9313 50.7964 34.8427L52.1252 34.0454C52.3023 33.9568 52.3023 33.8682 52.2138 33.7796Z" fill="#57565E"/>
<path d="M54.4278 32.4495L53.0991 31.6522C52.9219 31.5636 52.7447 31.5636 52.6561 31.6522L51.1502 32.5381C50.973 32.6267 50.973 32.7153 51.1502 32.8039L52.479 33.6012C52.6561 33.6898 52.8333 33.6898 52.9219 33.6012L54.4278 32.7153C54.605 32.7153 54.605 32.5381 54.4278 32.4495Z" fill="#57565E"/>
<path d="M41.6721 37.4115L40.3434 36.6142C40.1662 36.5256 39.989 36.5256 39.9004 36.6142L38.4831 37.4115C38.3059 37.5001 38.3059 37.5887 38.4831 37.6773L39.8119 38.4746C39.989 38.5632 40.1662 38.5632 40.2548 38.4746L41.5836 37.6773C41.7607 37.6773 41.7607 37.5001 41.6721 37.4115Z" fill="#57565E"/>
<path d="M43.709 36.2584L42.3803 35.461C42.2031 35.3724 42.0259 35.3724 41.9373 35.461L40.6086 36.2584C40.4314 36.347 40.4314 36.4356 40.6086 36.5241L41.9373 37.3215C42.1145 37.4101 42.2917 37.4101 42.3803 37.3215L43.709 36.5241C43.8862 36.4356 43.8862 36.2584 43.709 36.2584Z" fill="#57565E"/>
<path d="M43.7976 38.6505L42.3803 37.9418C42.2031 37.8532 42.0259 37.8532 41.9373 37.9418L40.6086 38.6505C40.4314 38.7391 40.4314 38.8277 40.6086 38.9163L41.9373 39.7136C42.1145 39.8022 42.2917 39.8022 42.3803 39.7136L43.709 38.9163C43.8862 38.9163 43.8862 38.7391 43.7976 38.6505Z" fill="#57565E"/>
<path d="M45.8362 37.4987L44.5075 36.7014C44.3303 36.6128 44.1531 36.6128 44.0645 36.7014L42.7358 37.4987C42.5586 37.5873 42.5586 37.6759 42.7358 37.7645L44.0645 38.5618C44.2417 38.6504 44.4189 38.6504 44.5075 38.5618L45.8362 37.7645C46.0134 37.6759 46.0134 37.4987 45.8362 37.4987Z" fill="#57565E"/>
<path d="M37.4201 39.8898L36.0913 39.0924C35.9142 39.0038 35.737 39.0038 35.6484 39.0924L34.3196 39.8898C34.1425 39.9784 34.1425 40.0669 34.3196 40.1555L35.6484 40.9529C35.8256 41.0415 36.0027 41.0415 36.0913 40.9529L37.4201 40.1555C37.5973 40.0669 37.5973 39.9784 37.4201 39.8898Z" fill="#57565E"/>
<path d="M39.5458 38.6493L38.217 37.852C38.0398 37.7634 37.8627 37.7634 37.7741 37.852L36.4451 38.6493C36.268 38.7379 36.268 38.8265 36.4451 38.9151L37.7741 39.7125C37.9512 39.8011 38.1284 39.8011 38.217 39.7125L39.5458 38.9151C39.6344 38.9151 39.6344 38.7379 39.5458 38.6493Z" fill="#57565E"/>
<path d="M39.5458 41.1316L38.217 40.3343C38.0398 40.2457 37.8627 40.2457 37.7741 40.3343L36.4451 41.1316C36.268 41.2202 36.268 41.3088 36.4451 41.3974L37.7741 42.1947C37.9512 42.2833 38.1284 42.2833 38.217 42.1947L39.5458 41.3974C39.7229 41.3088 39.7229 41.2202 39.5458 41.1316Z" fill="#57565E"/>
<path d="M41.6727 39.8898L40.3439 39.0924C40.1667 39.0038 39.9896 39.0038 39.901 39.0924L38.5722 39.8898C38.395 39.9784 38.395 40.0669 38.5722 40.1555L39.901 40.9529C40.0781 41.0415 40.2553 41.0415 40.3439 40.9529L41.6727 40.1555C41.7612 40.0669 41.7612 39.9784 41.6727 39.8898Z" fill="#57565E"/>
<path d="M33.2566 42.372L31.9279 41.5747C31.7507 41.4861 31.5735 41.4861 31.485 41.5747L30.1562 42.372C29.979 42.4606 29.979 42.5492 30.1562 42.6378L31.485 43.4351C31.6621 43.5237 31.8393 43.5237 31.9279 43.4351L33.2566 42.6378C33.3452 42.5492 33.3452 42.372 33.2566 42.372Z" fill="#57565E"/>
<path d="M35.2946 41.0429L33.9658 40.2456C33.7887 40.157 33.6115 40.157 33.5229 40.2456L32.1942 41.0429C32.017 41.1315 32.017 41.2201 32.1942 41.3086L33.5229 42.106C33.7001 42.1946 33.8773 42.1946 33.9658 42.106L35.2946 41.3086C35.4718 41.3086 35.4718 41.2201 35.2946 41.0429Z" fill="#57565E"/>
<path d="M35.3832 43.6124L34.0544 42.8151C33.8773 42.7265 33.7001 42.7265 33.6115 42.8151L32.1942 43.6124C32.017 43.701 32.017 43.7895 32.1942 43.8781L33.5229 44.6755C33.7001 44.7641 33.8773 44.7641 33.9658 44.6755L35.2946 43.8781C35.4718 43.7009 35.4718 43.6124 35.3832 43.6124Z" fill="#57565E"/>
<path d="M37.5092 42.372L36.1804 41.5747C36.0033 41.4861 35.8261 41.4861 35.7375 41.5747L34.4088 42.372C34.2316 42.4606 34.2316 42.5492 34.4088 42.6378L35.7375 43.4351C35.9147 43.5237 36.0919 43.5237 36.1804 43.4351L37.5092 42.6378C37.5978 42.5492 37.5978 42.4606 37.5092 42.372Z" fill="#57565E"/>
<path d="M29.004 44.763L27.6752 43.9657C27.498 43.8771 27.3209 43.8771 27.2323 43.9657L25.9035 44.763C25.7263 44.8516 25.7263 44.9402 25.9035 45.0288L27.2323 45.8261C27.4094 45.9147 27.5866 45.9147 27.6752 45.8261L29.004 45.0288C29.1811 45.0288 29.1811 44.8516 29.004 44.763Z" fill="#57565E"/>
<path d="M31.1305 43.5251L29.7132 42.7278C29.536 42.6392 29.3588 42.6392 29.2702 42.7278L27.9415 43.5251C27.7643 43.6137 27.7643 43.7023 27.9415 43.7909L29.2702 44.5883C29.4474 44.6768 29.6246 44.6768 29.7132 44.5883L31.0419 43.7909C31.3077 43.7023 31.3077 43.6137 31.1305 43.5251Z" fill="#57565E"/>
<path d="M31.131 46.0039L29.8023 45.2065C29.6251 45.118 29.4479 45.118 29.3593 45.2065L28.0306 46.0039C27.8534 46.0925 27.8534 46.1811 28.0306 46.2697L29.3593 47.067C29.5365 47.1556 29.7137 47.1556 29.8023 47.067L31.131 46.2697C31.3082 46.1811 31.3082 46.0925 31.131 46.0039Z" fill="#57565E"/>
<path d="M33.2566 44.763L31.9279 43.9657C31.7507 43.8771 31.5735 43.8771 31.485 43.9657L30.1562 44.763C29.979 44.8516 29.979 44.9402 30.1562 45.0288L31.485 45.8261C31.6621 45.9147 31.8393 45.9147 31.9279 45.8261L33.2566 45.0288C33.4338 45.0288 33.4338 44.8516 33.2566 44.763Z" fill="#57565E"/>
<path d="M50.1764 37.4115L48.8477 36.6142C48.6705 36.5256 48.4933 36.5256 48.4048 36.6142L47.076 37.4115C46.8988 37.5001 46.8988 37.5887 47.076 37.6773L48.4048 38.4746C48.5819 38.5632 48.7591 38.5632 48.8477 38.4746L50.1764 37.6773C50.3536 37.5887 50.3536 37.4115 50.1764 37.4115Z" fill="#57565E"/>
<path d="M52.3019 36.1691L50.9732 35.3718C50.796 35.2832 50.6188 35.2832 50.5302 35.3718L49.2015 36.1691C49.0243 36.2577 49.0243 36.3463 49.2015 36.4349L50.5302 37.2322C50.7074 37.3208 50.8846 37.3208 50.9732 37.2322L52.3019 36.4349C52.3905 36.3463 52.3905 36.2577 52.3019 36.1691Z" fill="#57565E"/>
<path d="M56.5546 33.6884L55.2259 32.891C55.0487 32.8024 54.8715 32.8024 54.7829 32.891L53.4542 33.6884C53.277 33.777 53.277 33.8655 53.4542 33.9541L54.7829 34.7514C54.9601 34.84 55.1373 34.84 55.2259 34.7514L56.5546 33.9541C56.7318 33.8655 56.7318 33.777 56.5546 33.6884Z" fill="#57565E"/>
<defs>
<linearGradient id="paint0_linear_1_481" x1="29.4691" y1="61.2796" x2="-1.90931" y2="76.3356" gradientUnits="userSpaceOnUse">
<stop offset="0.15" stop-color="#EDEDED"/>
<stop offset="1" stop-color="#DFDFDF"/>
</linearGradient>
<linearGradient id="paint1_linear_1_481" x1="71.2799" y1="69.9205" x2="26.9811" y2="61.3063" gradientUnits="userSpaceOnUse">
<stop offset="0.15" stop-color="#E6E6E6"/>
<stop offset="1" stop-color="#BBBBBB"/>
</linearGradient>
<linearGradient id="paint2_linear_1_481" x1="62.3538" y1="52.8918" x2="-15.8608" y2="14.1106" gradientUnits="userSpaceOnUse">
<stop offset="0.1927" stop-color="#E9E8E8"/>
<stop offset="1" stop-color="white"/>
</linearGradient>
<linearGradient id="paint3_linear_1_481" x1="17.2141" y1="43.1287" x2="33.1297" y2="1.22401" gradientUnits="userSpaceOnUse">
<stop stop-color="#A9CFB1"/>
<stop offset="1" stop-color="white"/>
</linearGradient>
<linearGradient id="paint4_linear_1_481" x1="19.1156" y1="34.8435" x2="43.9915" y2="43.813" gradientUnits="userSpaceOnUse">
<stop stop-color="#B2C9B8"/>
<stop offset="1" stop-color="#D5E1D8"/>
</linearGradient>
<linearGradient id="paint5_linear_1_481" x1="26.6432" y1="53.5957" x2="49.7015" y2="31.6083" gradientUnits="userSpaceOnUse">
<stop stop-color="#F4F9F5"/>
<stop offset="1" stop-color="white"/>
</linearGradient>
</defs>
</svg>
