<svg width="68" height="62" viewBox="0 0 68 62" fill="none" xmlns="http://www.w3.org/2000/svg">
<path d="M0.529785 41.7174V18.336L36.0794 38.3542V61.7357L0.529785 41.7174Z" fill="url(#paint0_linear_1_939)"/>
<path d="M67.7856 44.1989V20.8976L36.0792 38.3535V61.7348L67.7856 44.1989Z" fill="url(#paint1_linear_1_939)"/>
<path d="M0.529785 18.3348L32.2361 0.878906L67.7857 20.8972L35.9993 38.3531L0.529785 18.3348Z" fill="url(#paint2_linear_1_939)"/>
<path d="M54.1748 22.9795L47.2891 18.9759L13.1807 18.0951L37.3608 32.7485L37.7611 32.5082L54.1748 22.9795Z" fill="url(#paint3_linear_1_939)"/>
<path d="M37.5211 31.8669L53.1341 22.8187L30.7154 9.28637C30.4752 9.12622 30.235 9.12622 29.9948 9.28637L14.9423 18.0143L37.5211 31.8669Z" fill="#2FAB46"/>
<path d="M37.5211 31.707L53.1341 22.6587L30.7154 9.1264C30.4752 8.96625 30.235 8.96625 29.9948 9.1264L14.9423 17.8544L37.5211 31.707Z" fill="#EFF7FF"/>
<path d="M37.5211 31.387L53.054 22.2587L30.7154 8.80639C30.4752 8.64624 30.235 8.64624 29.9948 8.80639L14.9423 17.5343L37.5211 31.387Z" fill="#2FAB46"/>
<path d="M37.5211 31.1464L53.1341 22.0981L30.7154 8.56579C30.4752 8.40564 30.235 8.40564 29.9948 8.56579L14.9423 17.2937L37.5211 31.1464Z" fill="#EFF7FF"/>
<path d="M37.5211 30.8261L53.1341 21.7779L30.7154 8.24554C30.4752 8.08539 30.235 8.08539 29.9948 8.24554L14.9423 16.9735L37.5211 30.8261Z" fill="#2FAB46"/>
<path d="M37.5211 30.6662L53.1341 21.6179L30.7154 8.08556C30.4752 7.92542 30.235 7.92542 29.9948 8.08556L14.9423 16.8135L37.5211 30.6662Z" fill="#EFF7FF"/>
<path d="M37.5211 30.265L53.1341 21.2168L30.7154 7.68444C30.4752 7.52429 30.235 7.52429 29.9948 7.68444L14.9423 16.4124L37.5211 30.265Z" fill="#2FAB46"/>
<path d="M37.5211 30.105L53.1341 21.0568L30.7154 7.52444C30.4752 7.36429 30.235 7.36429 29.9948 7.52444L14.9423 16.2524L37.5211 30.105Z" fill="#EFF7FF"/>
<path d="M37.5211 29.6256L53.1341 20.5773L30.7154 7.04498C30.4752 6.88483 30.235 6.88483 29.9948 7.04498L14.9423 15.7729L37.5211 29.6256Z" fill="#2FAB46"/>
<path d="M37.5211 29.4653L53.1341 20.4171L30.7154 6.88473C30.4752 6.72458 30.235 6.72458 29.9948 6.88473L14.9423 15.6127L37.5211 29.4653Z" fill="#EFF7FF"/>
<path d="M54.1754 18.5747L30.3956 4.16158C30.1554 4.00144 29.8352 4.00144 29.595 4.16158L13.5016 13.5301C12.861 13.8504 12.5408 14.491 12.5408 15.2117V17.4537C12.5408 17.774 12.781 18.0943 13.0212 18.1744L37.1212 32.7477L36.8811 29.6248L37.6016 28.1835L54.1754 18.5747ZM17.2647 19.6957C16.7043 19.3755 16.2238 18.4947 16.2238 17.8541C16.2238 17.2135 16.7043 16.8932 17.2647 17.2135C17.8252 17.5338 18.3056 18.4146 18.3056 19.0552C18.3056 19.7758 17.8252 20.016 17.2647 19.6957Z" fill="url(#paint4_linear_1_939)"/>
<path d="M37.6006 28.1835L54.1744 18.5747L30.3946 4.16158C30.1544 4.00144 29.8342 4.00144 29.594 4.16158L13.5006 13.5301L37.6006 28.1835Z" fill="url(#paint5_linear_1_939)"/>
<path d="M37.7609 32.507C37.6808 32.507 37.6007 32.5871 37.5207 32.5871C37.2805 32.5871 37.0402 32.427 37.0402 32.1067V29.8646C37.0402 29.2241 37.3605 28.7436 37.921 28.4233L54.1746 18.9747V18.6544L37.7609 28.103C37.1203 28.4233 36.8 29.0639 36.8 29.7846V32.0266C36.8 32.6672 37.4406 32.9875 38.0011 32.6672L54.2546 23.2186V22.8182L37.7609 32.507Z" fill="#494855"/>
<path d="M17.2634 16.8937C16.5428 16.4933 15.9022 16.8136 15.9022 17.6144C15.9022 18.4952 16.5428 19.5361 17.2634 19.9365C17.984 20.3368 18.6244 20.0165 18.6244 19.2158C18.6244 18.4151 17.984 17.3741 17.2634 16.8937Z" fill="#2FAB46"/>
<path d="M29.3544 27.063L19.5061 21.3779V18.5753L29.3544 24.2605V27.063Z" fill="url(#paint6_linear_1_939)"/>
<defs>
<linearGradient id="paint0_linear_1_939" x1="26.4346" y1="35.7203" x2="-0.774646" y2="50.1778" gradientUnits="userSpaceOnUse">
<stop offset="0.15" stop-color="#EEEEEE"/>
<stop offset="1" stop-color="#E0E0E0"/>
</linearGradient>
<linearGradient id="paint1_linear_1_939" x1="64.4612" y1="44.0307" x2="24.7687" y2="35.436" gradientUnits="userSpaceOnUse">
<stop offset="0.15" stop-color="#E7E7E7"/>
<stop offset="1" stop-color="#BCBCBC"/>
</linearGradient>
<linearGradient id="paint2_linear_1_939" x1="56.4283" y1="30.7677" x2="-14.0326" y2="-4.45992" gradientUnits="userSpaceOnUse">
<stop offset="0.1927" stop-color="#EAE9E9"/>
<stop offset="1" stop-color="white"/>
</linearGradient>
<linearGradient id="paint3_linear_1_939" x1="33.7522" y1="20.4763" x2="47.3481" y2="12.1274" gradientUnits="userSpaceOnUse">
<stop stop-color="#B2CAB9"/>
<stop offset="1" stop-color="#D6E2D9"/>
</linearGradient>
<linearGradient id="paint4_linear_1_939" x1="27.3899" y1="27.9513" x2="30.34" y2="22.3811" gradientUnits="userSpaceOnUse">
<stop stop-color="#DEF3E3"/>
<stop offset="0.2396" stop-color="#A9D1B1"/>
<stop offset="1" stop-color="white"/>
</linearGradient>
<linearGradient id="paint5_linear_1_939" x1="33.8623" y1="28.213" x2="33.8623" y2="-35.8479" gradientUnits="userSpaceOnUse">
<stop offset="0.15" stop-color="#F7FFF8"/>
<stop offset="1" stop-color="#E0F8E4"/>
</linearGradient>
<linearGradient id="paint6_linear_1_939" x1="25.2942" y1="22.1447" x2="19.3384" y2="26.8396" gradientUnits="userSpaceOnUse">
<stop offset="0.15" stop-color="#E4F2E7"/>
<stop offset="1" stop-color="#CCFFD5"/>
</linearGradient>
</defs>
</svg>
