<svg width="186" height="21" viewBox="0 0 186 21" fill="none" xmlns="http://www.w3.org/2000/svg">
<g clip-path="url(#clip0_1_6)">
<path d="M95.772 0L91.1024 13.07L87.2946 0H83.3068C82.6121 0 81.9947 0.427289 81.7631 1.08079L74.6365 21H79.7821L84.4517 7.94255L88.2723 21H92.2601C92.9548 21 93.5851 20.5727 93.8038 19.9318L100.93 0H95.772Z" fill="black"/>
<path d="M103.336 1.08079L96.2095 21H100.197C100.892 21 101.509 20.5727 101.741 19.9318L108.868 0H104.88C104.185 0.0125673 103.568 0.439856 103.336 1.08079Z" fill="black"/>
<path d="M79.345 0L72.2184 19.9192C71.9869 20.5601 71.3694 20.9874 70.6747 20.9874H66.6869L71.3694 7.90485L61.953 21H56.5115L56.2671 7.94255L51.5975 21H46.4519L53.5785 1.08079C53.8101 0.439856 54.4276 0.0125673 55.1222 0H59.6889L61.3098 14.9803L72.1927 1.307C72.8487 0.477558 73.865 0 74.9327 0H79.345V0Z" fill="black"/>
<path d="M144.694 5.02693H144.707L144.797 4.76302C145.466 2.89049 144.449 0.854578 142.533 0.201077C142.147 0.075404 141.735 0 141.323 0H130.196L129.9 0.842011L125.539 13.0072H129.527C130.222 13.0072 130.839 12.5799 131.071 11.939L133.541 5.02693H137.606C138.352 5.02693 138.957 5.61759 138.957 6.3465C138.957 6.49731 138.931 6.63555 138.879 6.78636L136.885 12.3662C136.114 14.5278 134.03 15.9731 131.688 15.9731H124.459L122.684 21H130.826C135.689 21 140.024 17.9964 141.632 13.5099L144.694 5.02693Z" fill="#36AB4B"/>
<path d="M49.4621 5.02693H49.475L51.2502 0H36.1479C35.4533 0 34.8358 0.439856 34.6042 1.08079L29.2786 15.9731H29.2657L27.4905 21H42.5928C43.2874 21 43.9049 20.5727 44.1364 19.9318L49.4621 5.02693ZM34.437 15.9731L37.9103 6.10772C38.1418 5.45422 38.7593 5.02693 39.4668 5.02693H44.3165L40.7404 14.9048C40.5088 15.5458 39.8913 15.9731 39.1967 15.9731H34.437Z" fill="black"/>
<path d="M163.913 3.94614L165.315 0H150.212C149.518 0 148.887 0.427289 148.656 1.08079L147.267 5.02693H162.369C163.064 5.02693 163.681 4.59964 163.913 3.94614Z" fill="#36AB4B"/>
<path d="M144.372 13.1455H159.474C160.169 13.1455 160.786 12.7056 161.018 12.0647L162.42 8.11856H147.318C146.623 8.11856 145.993 8.54585 145.761 9.19935L144.372 13.1455Z" fill="#36AB4B"/>
<path d="M141.516 21H156.619C157.313 21 157.944 20.5727 158.175 19.9192L159.577 15.9731H144.475C143.78 15.9731 143.163 16.4129 142.931 17.0539L141.516 21Z" fill="#36AB4B"/>
<path d="M119.661 15.9731H115.39C113.614 15.9731 112.174 14.5655 112.174 12.8312C112.174 12.4794 112.238 12.1275 112.354 11.7882L113.524 8.50808C114.271 6.4219 116.277 5.02693 118.541 5.02693H124.716C125.411 5.02693 126.028 4.58707 126.26 3.94614L127.662 0H119.262C114.566 0 110.373 2.91562 108.829 7.25135L106.938 12.5296C105.755 15.8474 107.543 19.4794 110.939 20.6481C111.633 20.8869 112.354 21 113.087 21H120.175L121.204 18.1095C121.5 17.2801 121.063 16.3627 120.201 16.061C120.034 15.9982 119.854 15.9731 119.661 15.9731Z" fill="#36AB4B"/>
<path d="M180.083 0L170.268 8.3447L173.252 0H168.106L160.607 20.9874H164.595C165.289 20.9874 165.907 20.5601 166.138 19.9192L167.386 16.4506L171.953 12.4165L174.461 21H179.607L176.043 8.80969L186.013 0.0125673L180.083 0Z" fill="#36AB4B"/>
<path d="M10.7543 21.0126C16.6937 21.0126 21.5085 16.3087 21.5085 10.5063C21.5085 4.70382 16.6937 0 10.7543 0C4.81485 0 0 4.70382 0 10.5063C0 16.3087 4.81485 21.0126 10.7543 21.0126Z" fill="#36AB4B"/>
<path d="M10.7543 21.0126C16.6937 21.0126 21.5085 16.3087 21.5085 10.5063C21.5085 4.70382 16.6937 0 10.7543 0C4.81485 0 0 4.70382 0 10.5063C0 16.3087 4.81485 21.0126 10.7543 21.0126Z" fill="url(#paint0_radial_1_6)"/>
<path d="M4.97852 14.4272L4.50255 17.4308C4.50255 17.4308 4.42537 17.7198 4.61833 17.7072C4.81129 17.6947 7.65422 13.3589 10.703 11.6875C13.7517 10.016 19.399 8.21891 19.399 8.21891C19.399 8.21891 20.2866 7.89216 19.5148 7.76649C18.743 7.64081 14.5493 7.76649 14.5493 7.76649L8.76052 8.84728L5.50594 12.718L4.97852 14.4272Z" fill="white"/>
<mask id="mask0_1_6" style="mask-type:alpha" maskUnits="userSpaceOnUse" x="4" y="7" width="16" height="11">
<path d="M4.97827 14.4272L4.50231 17.4308C4.50231 17.4308 4.42512 17.7198 4.61808 17.7072C4.81104 17.6947 7.65398 13.3589 10.7027 11.6875C13.7515 10.016 19.3988 8.21891 19.3988 8.21891C19.3988 8.21891 20.2864 7.89216 19.5145 7.76649C18.7427 7.64081 14.5491 7.76649 14.5491 7.76649L8.76028 8.84728L5.5057 12.718L4.97827 14.4272Z" fill="white"/>
</mask>
<g mask="url(#mask0_1_6)">
<path d="M4.45093 13.6984L3.97496 16.702C3.97496 16.702 3.89778 16.991 4.09074 16.9784C4.2837 16.9659 7.12663 12.6302 10.1754 10.9461C13.2241 9.26211 18.8843 7.47755 18.8843 7.47755C18.8843 7.47755 19.7719 7.1508 19.0129 7.02512C18.254 6.89945 14.0474 7.02512 14.0474 7.02512L8.25866 8.09335L4.99122 11.9641L4.45093 13.6984Z" fill="#DADADA"/>
</g>
<path d="M3.10035 5.20284C3.06176 5.11487 3.10035 5.00176 3.1904 4.96406C3.22899 4.95149 3.28045 4.93893 3.31904 4.95149C4.07801 5.19027 5.39014 5.45419 6.71512 5.6804C8.94059 6.05742 10.3556 5.96945 15.0638 5.99458C15.8743 5.99458 17.1092 6.00715 18.6271 6.03228C18.8072 6.03228 18.8973 6.30877 18.7301 6.35904C15.8228 7.26388 12.2852 8.40751 9.8282 10.0287C6.43212 12.2657 4.84985 14.5152 3.57632 16.3249C3.47341 16.4757 3.29331 16.2747 3.30617 16.0987C3.60205 12.7935 5.403 9.28722 5.30009 9.03588C5.15858 8.67142 4.48966 7.77914 4.24524 7.37699C3.82073 6.66065 3.44768 5.94431 3.10035 5.20284Z" fill="white"/>
</g>
<defs>
<radialGradient id="paint0_radial_1_6" cx="0" cy="0" r="1" gradientUnits="userSpaceOnUse" gradientTransform="translate(10.7478 10.5) scale(10.7478 10.5)">
<stop stop-color="#ADC924"/>
<stop offset="0.13" stop-color="#A2C525"/>
<stop offset="0.36" stop-color="#86B929"/>
<stop offset="0.66" stop-color="#57A730"/>
<stop offset="1" stop-color="#1C8F38"/>
</radialGradient>
<clipPath id="clip0_1_6">
<rect width="186" height="21" fill="white"/>
</clipPath>
</defs>
</svg>
