<svg width="59" height="79" viewBox="0 0 59 79" fill="none" xmlns="http://www.w3.org/2000/svg">
<path d="M0.917358 60.383V27.9449L33.7931 46.2189V78.657L0.917358 60.383Z" fill="url(#paint0_linear_1_457)"/>
<path d="M58.1559 65.4451V33.0074L33.7926 46.2174V78.6552L58.1559 65.4451Z" fill="url(#paint1_linear_1_457)"/>
<path d="M0.917358 27.945L25.2807 14.7349L58.1564 33.0088L33.7931 46.2189L0.917358 27.945Z" fill="url(#paint2_linear_1_457)"/>
<path d="M23.3737 35.7964C23.0802 35.6497 22.0528 35.5029 21.5391 35.5029C20.8787 35.4295 20.4384 35.3561 19.9981 35.2827C18.4571 34.769 17.0628 33.6681 15.962 31.9068C13.8339 28.7511 15.2282 23.9074 16.2555 21.3387C17.1361 19.1371 17.87 16.862 18.6038 14.6603C19.1175 13.1191 19.6312 11.5046 20.2183 9.89002L22.7133 10.7707C22.1996 12.3119 21.6125 13.9264 21.0989 15.4676C20.365 17.7427 19.5578 20.0911 18.6772 22.2928C18.0168 23.9808 16.6225 28.1639 18.0901 30.5124C18.6772 31.3931 19.5578 32.4205 20.7319 32.7875C20.8787 32.8609 21.3924 32.8609 21.6859 32.9343C23.3737 33.081 24.8414 33.3012 25.3551 34.402L22.9334 35.4295C23.1536 35.6497 23.3737 35.7964 23.3737 35.7964Z" fill="#494855"/>
<path d="M20.438 9.00928L25.5014 36.0165L25.9417 38.0714L38.1968 31.1728L40.0313 30.1454C40.3983 29.9252 40.6184 29.4849 40.6184 28.8244V11.1376C40.6184 7.90843 39.958 4.75269 37.9032 2.6244C37.7565 2.47763 37.6097 2.33085 37.4629 2.18407C37.0226 1.81712 36.5823 1.52356 36.142 1.23001L36.0687 1.15662C35.555 0.863061 34.9679 0.789672 34.601 1.00984C34.3808 1.00984 20.438 9.00928 20.438 9.00928Z" fill="url(#paint3_linear_1_457)"/>
<path d="M25.4994 36.0168L25.8663 38.0717L38.1214 31.1731V18.6969L26.4534 25.3753L25.4994 36.0168Z" fill="url(#paint4_linear_1_457)"/>
<path d="M28.7291 34.1829L28.8025 20.3857C28.8025 19.4317 29.5363 18.1841 30.3435 17.6703L37.5351 13.5605C37.9754 13.267 38.4157 13.267 38.7093 13.4872L41.5712 15.1751L39.0762 21.0462V28.3118C39.0762 29.2659 38.3424 30.5135 37.5351 31.0272L33.866 33.0087L32.1781 36.9717L29.1694 35.2104C28.8759 35.0636 28.7291 34.77 28.7291 34.1829Z" fill="#ECF4EE"/>
<path d="M31.7399 22.1468V36.0174C31.7399 36.4577 31.8866 36.8247 32.1801 36.9715C32.4737 37.1916 32.914 37.1916 33.3543 36.8981L40.4725 32.7883C41.2797 32.3479 42.0135 31.1003 42.0135 30.1463V16.2023C42.0135 15.6886 41.8667 15.3216 41.4998 15.1748C41.2063 15.0281 40.8394 15.1015 40.3991 15.3216L33.2809 19.4314C32.4737 19.9451 31.7399 21.1194 31.7399 22.1468Z" fill="url(#paint5_linear_1_457)"/>
<path d="M33.2804 25.1553V25.8158L39.0777 22.5133L42.013 20.8253V20.0914L39.0777 21.8528L33.2804 25.1553Z" fill="#494855"/>
<path d="M32.1055 26.6965L33.0595 26.1094V24.8618L32.1055 25.3755V26.6965Z" fill="#494855"/>
<path d="M32.1055 28.8998L33.0595 28.3127L32.766 26.2578L32.3256 26.5514L32.1055 28.8998Z" fill="#494855"/>
<path d="M23.7399 19.5032L22.7859 18.9895V17.6685L23.7399 18.1822V19.5032Z" fill="#494855"/>
<path d="M23.7399 21.7796L22.7859 21.1925L23.0794 19.1376L23.5197 19.4311L23.7399 21.7796Z" fill="#494855"/>
<path d="M23.0049 9.88994V17.5958L23.592 17.9628V10.4771L37.755 2.6244C37.6082 2.47762 37.4614 2.33085 37.3146 2.18407L23.0049 9.88994Z" fill="#494855"/>
<path fill-rule="evenodd" clip-rule="evenodd" d="M19.7029 21.2643V10.3293C19.7029 9.00832 20.6569 8.4946 21.7576 9.1551L21.831 9.22849C25.3534 11.21 26.3808 15.0996 26.3808 19.136V25.3741V25.4475V36.8229C26.3808 38.1439 25.5002 38.731 24.326 37.9971L21.7576 36.5293C20.6569 35.8688 19.7029 34.2542 19.7029 32.9332V21.2643Z" fill="url(#paint6_linear_1_457)"/>
<path d="M31.4438 2.33163L32.1043 2.84536L32.1776 3.21231L31.2236 2.69858L31.4438 2.33163Z" fill="#683C11"/>
<path d="M25.7228 5.78125C26.8969 2.77229 29.9791 1.01095 31.1532 2.6989C31.3 2.84568 31.5201 2.91907 31.6669 2.77229C31.8137 2.62552 31.887 2.18518 31.7403 1.96501C30.2726 -0.0898882 26.6034 2.0384 25.1357 5.78125C24.989 6.1482 24.989 6.51515 25.2091 6.51515C25.3559 6.44176 25.576 6.1482 25.7228 5.78125Z" fill="#494855"/>
<path d="M31.078 1.30373L32.1053 1.89085L28.216 3.06508L26.0145 6.88132L25.1339 6.44098L27.5556 2.40457L31.078 1.30373Z" fill="#494855"/>
<path d="M26.6014 6.22179C27.7756 3.21283 30.8577 1.45149 32.0318 3.13944C32.1786 3.28622 32.3987 3.35961 32.5455 3.21283C32.6923 3.06605 32.7657 2.62572 32.6189 2.40555C31.1512 0.424035 27.482 2.47894 26.0877 6.22179C25.941 6.58874 25.941 6.95569 26.1612 6.95569C26.3079 6.95569 26.5281 6.58874 26.6014 6.22179Z" fill="#494855"/>
<defs>
<linearGradient id="paint0_linear_1_457" x1="25.594" y1="49.8434" x2="-1.85133" y2="61.4038" gradientUnits="userSpaceOnUse">
<stop offset="0.15" stop-color="#EDEDED"/>
<stop offset="1" stop-color="#DFDFDF"/>
</linearGradient>
<linearGradient id="paint1_linear_1_457" x1="55.848" y1="57.3114" x2="24.6673" y2="52.6715" gradientUnits="userSpaceOnUse">
<stop offset="0.15" stop-color="#E6E6E6"/>
<stop offset="1" stop-color="#BBBBBB"/>
</linearGradient>
<linearGradient id="paint2_linear_1_457" x1="48.3854" y1="40.0759" x2="-11.2149" y2="9.82356" gradientUnits="userSpaceOnUse">
<stop offset="0.1927" stop-color="#E9E8E8"/>
<stop offset="1" stop-color="white"/>
</linearGradient>
<linearGradient id="paint3_linear_1_457" x1="24.2517" y1="6.56189" x2="35.5409" y2="26.7314" gradientUnits="userSpaceOnUse">
<stop stop-color="#DDF2E2"/>
<stop offset="0.1665" stop-color="#A9CFB1"/>
<stop offset="0.3445" stop-color="#B1D4B8"/>
<stop offset="1" stop-color="white"/>
</linearGradient>
<linearGradient id="paint4_linear_1_457" x1="27.9629" y1="36.7199" x2="36.3597" y2="20.1107" gradientUnits="userSpaceOnUse">
<stop stop-color="#A9CFB1"/>
<stop offset="1" stop-color="white"/>
</linearGradient>
<linearGradient id="paint5_linear_1_457" x1="31.4016" y1="33.9261" x2="42.5218" y2="18.067" gradientUnits="userSpaceOnUse">
<stop stop-color="#A9CFB1"/>
<stop offset="1" stop-color="white"/>
</linearGradient>
<linearGradient id="paint6_linear_1_457" x1="20.5805" y1="23.3628" x2="24.2079" y2="23.6616" gradientUnits="userSpaceOnUse">
<stop stop-color="#B2C9B8"/>
<stop offset="1" stop-color="#D5E1D8"/>
</linearGradient>
</defs>
</svg>
