<svg width="51" height="67" viewBox="0 0 51 67" fill="none" xmlns="http://www.w3.org/2000/svg">
<path d="M0.48645 49.5294V24.8864L29.3555 41.6674V66.3105L0.48645 49.5294Z" fill="url(#paint0_linear_1_438)"/>
<path d="M50.6942 54.2199V29.5766L29.3562 41.6668V66.3102L50.6942 54.2199Z" fill="url(#paint1_linear_1_438)"/>
<path d="M0.48645 24.8858L21.8244 12.7955L50.6935 29.5765L29.3555 41.6668L0.48645 24.8858Z" fill="url(#paint2_linear_1_438)"/>
<path d="M26.7778 26.5357L27.9009 20.5897L25.4565 23.1002L25.3905 26.6018L25.7208 27.1964L26.7778 26.5357Z" fill="#36A94C"/>
<path d="M22.947 21.4497L23.1452 25.678L25.7216 27.1315L25.9198 23.1014L22.947 21.4497Z" fill="#2C973C"/>
<path d="M18.9832 21.1197C17.8602 24.8856 12.6413 30.1709 14.9534 31.3602C16.0765 31.9548 21.1633 31.0298 23.0791 29.4442C23.8718 28.7835 24.07 26.4051 25.5234 24.291C27.1088 21.9786 27.9016 21.7804 28.364 20.1287C28.8265 18.411 27.1089 16.2308 26.9767 14.8434C26.7785 13.0595 27.5052 8.76518 27.6373 2.15846L18.5208 5.46182C19.5117 8.56698 20.0402 17.42 18.9832 21.1197Z" fill="url(#paint3_linear_1_438)"/>
<path d="M36.8207 28.3865L37.8777 22.5065L35.4334 25.0171L35.3673 28.4525L35.6976 29.0471L36.8207 28.3865Z" fill="#36A94C"/>
<path d="M32.9907 23.365L33.1889 27.5933L35.7653 29.0468L35.9635 25.0167L32.9907 23.365Z" fill="#2C973C"/>
<path d="M29.0252 23.0352C27.9022 26.801 22.6833 32.0203 24.9954 33.2095C26.1185 33.8042 31.2053 32.8792 33.121 31.2936C33.9138 30.6329 34.112 28.2545 35.5653 26.1404C37.1508 23.828 37.9436 23.6298 38.406 21.9781C38.8684 20.3265 37.1508 18.0802 37.0187 16.6928C36.8205 14.9089 37.5472 10.6146 37.6793 4.00786L28.4967 7.31122C29.5537 10.3503 30.0822 19.2694 29.0252 23.0352Z" fill="url(#paint4_linear_1_438)"/>
<path d="M27.1754 1.16701C28.2984 1.82768 27.3736 3.4133 25.1275 4.73464C22.8813 6.05598 20.1068 6.58452 18.9837 5.92385C17.8607 5.26318 18.7855 3.67756 21.0316 2.35622C23.2777 1.03488 26.0523 0.50634 27.1754 1.16701Z" fill="#494855"/>
<path d="M25.1934 17.0235C25.0612 17.0235 24.9952 16.9575 24.9952 16.8253C24.797 14.8433 24.9952 12.9274 25.1934 10.9454C25.3915 8.96334 25.6558 6.84919 25.3916 4.6029C25.3916 4.6029 25.5897 4.4047 25.854 4.27257C26.1182 6.58492 25.854 8.8312 25.6558 10.9454C25.4576 12.9274 25.1934 14.8433 25.4576 16.7593C25.5237 16.8914 25.3915 17.0235 25.1934 17.0235C25.2594 17.0235 25.2594 17.0235 25.1934 17.0235Z" fill="#494855"/>
<path d="M37.2174 3.01594C38.3404 3.67661 37.4155 5.26222 35.1694 6.58357C32.9233 7.90491 30.1488 8.43345 29.0257 7.77278C27.9027 7.11211 28.8275 5.52649 31.0736 4.20515C33.3197 2.94987 36.0282 2.35527 37.2174 3.01594Z" fill="#494855"/>
<defs>
<linearGradient id="paint0_linear_1_438" x1="21.9698" y1="42.4319" x2="-1.56607" y2="53.0705" gradientUnits="userSpaceOnUse">
<stop offset="0.15" stop-color="#EDEDED"/>
<stop offset="1" stop-color="#DFDFDF"/>
</linearGradient>
<linearGradient id="paint1_linear_1_438" x1="48.6363" y1="49.3435" x2="21.3943" y2="44.9336" gradientUnits="userSpaceOnUse">
<stop offset="0.15" stop-color="#E6E6E6"/>
<stop offset="1" stop-color="#BBBBBB"/>
</linearGradient>
<linearGradient id="paint2_linear_1_438" x1="42.4232" y1="35.4032" x2="-10.8038" y2="9.58804" gradientUnits="userSpaceOnUse">
<stop offset="0.1927" stop-color="#E9E8E8"/>
<stop offset="1" stop-color="white"/>
</linearGradient>
<linearGradient id="paint3_linear_1_438" x1="14.8894" y1="16.8024" x2="27.1075" y2="16.8104" gradientUnits="userSpaceOnUse">
<stop stop-color="#AFD6B7"/>
<stop offset="1" stop-color="#DEF3E3"/>
</linearGradient>
<linearGradient id="paint4_linear_1_438" x1="24.9307" y1="18.6381" x2="37.1495" y2="18.6461" gradientUnits="userSpaceOnUse">
<stop stop-color="#AFD6B7"/>
<stop offset="1" stop-color="#DEF3E3"/>
</linearGradient>
</defs>
</svg>
