<svg width="79" height="94" viewBox="0 0 79 94" fill="none" xmlns="http://www.w3.org/2000/svg">
<path d="M0 73.6646V39.1144L34.3684 58.6272V93.1773L0 73.6646Z" fill="url(#paint0_linear_1_579)"/>
<path d="M78.4928 70.1759V35.6258L34.3689 58.5399V93.09L78.4928 70.1759Z" fill="url(#paint1_linear_1_579)"/>
<path d="M0 39.1152L44.2135 16.2012L78.5818 35.7139L34.2788 58.5385L0 39.1152Z" fill="url(#paint2_linear_1_579)"/>
<path d="M43.0501 38.6667V37.6821V38.0401L42.9607 38.1296V38.2192L42.6026 38.5772L42.1551 38.9352L41.5287 39.2932L40.8126 39.4723L40.0071 39.5618L39.2016 39.4723L38.3961 39.2932L37.6801 39.0247L37.2326 38.6667C37.3221 38.3982 37.3221 38.2192 37.3221 38.1296C37.3221 38.0401 36.5166 37.5926 36.5166 37.5926V39.4723C36.5166 39.4723 36.7851 40.0988 37.4116 40.4569L37.5011 40.5463L37.7696 40.6359L37.8591 40.7254L38.3961 40.9044L39.2016 40.9939L40.0071 41.0834L40.8126 40.9939L41.5287 40.8149H41.6182L41.9762 40.7254L42.0657 40.6359L42.2447 40.5463L42.3341 40.4569L42.6922 40.1883V40.0988L42.9607 39.7408V39.4723L43.0501 39.2037V38.6667Z" fill="#B2C9B6"/>
<path d="M27.4765 29.5385L26.5816 29.9861L26.0446 33.1189L26.9395 32.5818L27.4765 29.5385Z" fill="#B2C9B6"/>
<path d="M26.9394 37.3246L27.029 37.1455V36.7875V36.4295V36.0714V35.8924V35.8029V35.7134V32.5806L26.1339 33.1177V37.6826V37.7721L26.9394 37.3246Z" fill="#B2C9B6"/>
<path d="M38.6655 29.9855L38.5759 30.5226L37.6809 31.0596C37.5914 30.7016 37.323 30.5226 37.0545 30.254C36.6964 30.075 36.5174 30.1645 36.2489 30.3436L27.0303 35.6245V37.2357L26.1353 37.7727C26.0458 37.4147 25.7773 37.1462 25.4193 36.9671C24.8823 36.6986 24.5243 36.8776 24.5243 37.5042C24.5243 38.1308 24.8823 38.7573 25.4193 39.0258C25.5088 39.1154 25.6878 39.1154 25.7773 39.1154L25.8668 39.2048L26.1353 39.1154L27.1198 38.5783L38.7549 31.8652C39.0234 31.7757 39.113 31.5967 39.113 31.2386C39.0235 30.7016 38.8445 30.2541 38.6655 29.9855Z" fill="url(#paint3_linear_1_579)"/>
<path d="M25.2389 37.0567C24.7019 36.7882 24.3439 36.9672 24.3439 37.5938C24.3439 38.1308 24.7019 38.8469 25.2389 39.1154C25.7759 39.3839 26.1339 39.2049 26.1339 38.5784C26.1339 37.9518 25.7759 37.3253 25.2389 37.0567Z" fill="url(#paint4_linear_1_579)"/>
<path d="M25.0599 37.4141C24.7019 37.2351 24.4333 37.3246 24.4333 37.7721C24.4333 38.1302 24.7019 38.6672 25.0599 38.8462C25.4179 39.0252 25.6864 38.9357 25.6864 38.4882C25.6864 38.1301 25.4179 37.5931 25.0599 37.4141Z" fill="url(#paint5_linear_1_579)"/>
<path d="M68.9152 23.0027L68.8257 23.2712V23.3607L68.4677 23.8083L67.9307 24.1663L67.2147 24.4348L66.4092 24.6138H65.5142L64.7087 24.5243L63.9032 24.3453L63.0977 23.9873V24.8824V25.7775L63.9032 26.1355L64.7087 26.3145L65.5142 26.404H66.4092L67.2147 26.225L67.8412 25.9565H67.9307L68.4677 25.5984L68.8257 25.2404V25.1509L68.9152 24.7034V23.8083V23.0027Z" fill="url(#paint6_linear_1_579)"/>
<path d="M41.8866 35.2661L41.7972 34.5501V34.192V34.013L41.9762 32.3124L40.1862 33.297L40.7231 34.2815L40.6337 34.371L40.5441 34.4606L40.6337 34.5501H40.7231L40.8126 34.6396L40.9022 34.7291V34.8186V34.9081L40.5441 35.1766L40.4546 35.7137L40.9916 35.6241L41.3497 35.5347L40.9916 35.8032L41.9762 36.1612V36.0717V35.3556V35.2661H41.8866Z" fill="#98AD9D"/>
<path d="M67.5732 21.6605C67.5732 22.1975 66.8572 22.645 65.9622 22.645C65.0672 22.645 64.3512 22.1975 64.3512 21.6605C64.3512 21.1234 65.0672 20.6759 65.9622 20.6759C66.8572 20.6759 67.5732 21.1234 67.5732 21.6605Z" fill="#F9F9F9"/>
<path d="M45.5571 33.0284L44.8411 33.5655L43.2301 34.5501H42.6931V35.2661L44.3041 34.371L44.9306 34.013L47.0786 32.7599H47.1682V32.3124L45.5571 33.0284Z" fill="#B2C9B6"/>
<path d="M41.8868 35.267H42.0659H42.6029V34.551H41.7974L41.8868 35.267Z" fill="#B2C9B6"/>
<path d="M41.9764 32.5801L41.8868 33.0277L41.7974 34.0123V34.5493H42.6028H43.1399V31.5061L41.9764 32.5801Z" fill="#98AD9D"/>
<path d="M45.8252 28.9118L45.7356 29.0013L45.5567 29.0908V29.0013V28.9118L44.5721 29.1803L43.7667 30.5229L44.1246 30.881V31.06L44.0351 31.1495L43.2296 31.597V34.6403L44.8406 33.6557L45.5567 33.0291L47.0781 32.3131L48.2417 31.776V27.8377L45.8252 28.9118Z" fill="#98AD9D"/>
<path d="M36.8748 8.77241L36.5168 8.41437V8.32487L36.3378 7.96683V8.77241V9.57797L36.4273 9.93601L36.5168 10.115L36.7853 10.4731L37.5013 10.8311V10.4731V10.0255V9.13043L36.8748 8.77241Z" fill="white"/>
<path fill-rule="evenodd" clip-rule="evenodd" d="M26.8494 26.2266L27.7444 26.5847L26.5809 30.0755L26.0439 33.2083V37.7732L25.8649 37.4152L25.6859 37.2362L25.4174 37.0571L25.2384 36.9676H24.9699L24.8804 37.0571V32.4027L25.3279 29.3594L26.4019 26.3161H26.8494V26.2266Z" fill="url(#paint7_linear_1_579)"/>
<path d="M15.7519 25.7781L15.0359 26.1361L14.2304 26.2256L13.3354 26.3151L12.5299 26.2256L12.4404 26.1361L11.7244 26.0466V25.9571L11.2769 25.7781L12.2614 26.3151L12.3509 26.4047L12.4404 26.4942L12.9774 26.5837L13.4249 26.6732H13.9619L14.4989 26.5837L14.8569 26.4942L14.9464 26.4047L16.1994 25.9571V25.5991L15.7519 25.7781Z" fill="#98AD9D"/>
<path d="M53.1625 35.2669L54.0575 34.8194L53.5205 31.1496L52.6255 31.6866L53.1625 35.2669Z" fill="#B2C9B6"/>
<path d="M53.0728 40.009L53.8783 39.6509L53.9678 39.5614V39.4719V39.1139V39.0244V38.8453V34.8175L52.9833 35.3545V40.009H53.0728Z" fill="#B2C9B6"/>
<path d="M40.4546 45.7387L40.6337 45.8282L40.9021 45.9177L41.0811 46.0967L41.3496 46.2757L41.4391 46.5443L41.5286 46.6338V41.9793L40.6337 41.4423L40.3651 41.5318L40.2756 41.6213V45.9177L40.4546 45.7387Z" fill="#98AD9D"/>
<path d="M52.6265 31.6863L53.5215 31.1493L52.358 26.4054L51.463 26.7634L52.6265 31.6863Z" fill="#B2C9B6"/>
<path d="M57.1016 25.6886L57.1911 26.0466H63.2772V25.6886H57.1016Z" fill="#B2C9B6"/>
<path d="M67.2147 26.2269L66.4092 26.4059H65.5142L64.7087 26.3164L63.9032 26.1374L63.0977 25.7794V26.1374L64.5297 26.5849L65.0667 26.6744L65.5142 26.764H66.1407L66.6777 26.6744L67.0357 26.5849L67.8412 26.0479L67.2147 26.2269Z" fill="#B2C9B6"/>
<path d="M42.9609 37.5055L42.8714 37.0579L42.6028 36.6999L42.5134 36.6104L42.2449 36.4314L41.9764 36.3419H41.8868L41.7974 36.2524L41.7078 36.1628L41.1708 35.7153V35.8048L41.2603 35.8943L41.3499 35.9838C40.8128 35.8048 40.2758 35.6258 39.6493 35.6258C37.8593 35.6258 36.3378 36.4314 36.3378 37.5055C36.3378 38.5796 37.7698 39.3851 39.6493 39.3851C39.7388 39.3851 39.7388 39.3851 39.7388 39.3851H39.8283H40.1864C40.2759 39.3851 40.2758 39.3851 40.3653 39.3851L40.7233 39.2956L41.4393 39.1166L42.0658 38.7586L42.6028 38.4005L42.8714 37.953V37.8635L42.9609 37.774V37.5055Z" fill="url(#paint8_linear_1_579)"/>
<path d="M42.7822 7.78656L42.6927 8.14459V8.2341L42.3347 8.68164L41.8872 9.03967L41.4397 9.3082V10.1138V11.0088V11.0984L41.7977 10.8298H41.8872L42.3347 10.4718L42.6927 9.93475L42.7822 9.57672V8.68164V7.78656Z" fill="url(#paint9_linear_1_579)"/>
<path d="M16.1105 23.7195V24.5251V25.4202H22.1965V24.5251V23.7195H16.1105Z" fill="#B2C9B6"/>
<path d="M28.4604 26.6739L27.7444 26.4949L26.5809 29.9857L27.4759 29.5381L28.4604 26.6739Z" fill="#B2C9B6"/>
<path d="M37.8584 35.3566L37.948 34.551H37.1425V35.267H37.769L37.8584 35.3566Z" fill="#98AD9D"/>
<path d="M35.1739 29.1791L34.0103 28.7315V29.0895L33.9209 29L33.6523 28.9105L31.2358 27.6574V31.5958L32.3098 32.1328L34.0103 32.9384L34.6369 33.3859L36.4269 34.5496L36.5164 31.0587L35.1739 29.1791Z" fill="url(#paint10_linear_1_579)"/>
<path d="M36.4276 34.5501L34.6376 33.3865L34.0111 33.0284L32.2211 32.1334V32.5809L32.3105 32.6704H32.4001L32.4896 32.7599L32.6686 32.8494L33.0266 33.0284L33.3846 33.2075L33.6531 33.3865L34.0111 33.5655L34.3691 33.7445L34.6376 33.834L34.7271 33.9235H34.8166L34.9061 34.013L36.3381 34.8186L36.5171 34.9081H36.6066L36.9646 35.1766H37.0541V34.4606H36.4276V34.5501Z" fill="url(#paint11_linear_1_579)"/>
<path d="M37.8593 34.3708L37.1433 31.7751L36.4273 31.0591L36.3378 34.5499H36.9643H37.7698V34.3708H37.8593Z" fill="#98AD9D"/>
<path d="M48.5096 27.389L46.6301 28.3736L45.8246 28.9106L48.2411 27.8365L48.5096 27.6575L50.3891 27.1204L51.3736 26.7624L52.3581 26.4044L52.4476 26.3149V25.9568L48.5096 27.389Z" fill="#B2C9B6"/>
<path d="M57.1016 23.989V24.8841L57.0121 25.6897L63.1876 25.7792V24.8841V23.989H57.1016Z" fill="url(#paint12_linear_1_579)"/>
<path d="M41.5292 40.9943L40.7237 41.1733L39.9182 41.2628H39.1127L38.3071 41.0838L37.7701 40.9048L38.5756 41.3523L38.9337 41.4418L39.4706 41.5313H39.9182H40.2762L40.3657 41.4418L40.6342 41.3523L40.9027 41.2628L40.9922 41.1733L41.4397 40.9943L41.8872 40.6362L41.5292 40.9943Z" fill="#B2C9B6"/>
<path d="M52.6258 31.6858L51.4623 26.7629L50.4778 27.1209L51.4623 30.9698L52.6258 31.6858Z" fill="#98AD9D"/>
<path d="M42.3347 40.5488L42.2452 40.6383L41.9767 40.7278L41.8872 40.8173L41.4397 41.1753L41.5292 41.9809L42.4242 41.5334L42.3347 40.5488Z" fill="#98AD9D"/>
<path d="M40.9911 41.352L40.6332 41.4415L41.5282 41.9786L41.4386 41.173L40.9911 41.352Z" fill="#98AD9D"/>
<path d="M41.6169 46.6325L42.4225 46.1849V46.0954V45.9164V45.5584V45.2003V44.8423V44.6633V44.4843V44.3948V41.3515L41.5275 41.799L41.6169 46.6325Z" fill="#B2C9B6"/>
<path d="M51.821 34.5499L53.074 35.3555L53.1635 35.2659L52.6265 31.6856L51.3735 30.8801L51.821 34.5499Z" fill="#98AD9D"/>
<path d="M51.8208 39.2054H51.9103L51.9998 39.1159H52.1788L52.4473 39.2054L52.7158 39.2949L52.8948 39.5635L53.0738 39.832V39.9215V35.267L51.8208 34.551V39.2054Z" fill="#98AD9D"/>
<path d="M16.1093 23.7188L15.7513 23.9873L15.0353 24.2558L14.2298 24.4348H13.3348L12.5293 24.3453L11.7238 24.1663L11.0973 23.8083L10.6498 23.4503V23.3607L10.3813 23.0027L10.2918 22.9132L10.2023 22.5552V23.5398V24.2558L10.2918 24.4348L10.3813 24.7034L10.5603 25.0614L11.0973 25.4194L11.1868 25.5089L11.2763 25.5984L11.7238 25.7775V25.8669L12.4398 25.9565L12.5293 26.046L13.3348 26.1355L14.2298 26.046L15.0353 25.9565L15.6618 25.6879L15.7513 25.5984L16.1093 25.3299V24.4348V23.7188Z" fill="url(#paint13_linear_1_579)"/>
<path d="M52.4482 24.347V26.0477L57.1023 25.6897L57.1919 23.989L52.4482 24.347Z" fill="#36A94C"/>
<path d="M52.4462 24.3455L48.5082 25.6881L46.6286 26.6727L44.7491 27.7468L42.4221 29.9845V30.074V30.1635L42.0641 31.5957L42.3326 31.4166L42.4221 31.3271L43.6751 30.432L43.7646 30.5216L44.5701 29.8055L44.8386 29.4475L45.6441 28.9999L45.7336 28.9104L45.8231 28.8209H45.9126L46.7181 28.2839L48.5976 27.2993L52.5357 25.9567V25.0616V24.3455H52.4462Z" fill="url(#paint14_linear_1_579)"/>
<path d="M38.754 8.05513L37.9485 7.24957L37.7695 6.98104L37.6799 6.71251V6.35449L37.7695 6.08596L38.038 5.99646L37.0535 6.5335L36.6954 6.89154L36.3374 7.33908L36.2479 7.42858V7.87612V7.96563L36.3374 8.32366V8.41317L36.6954 8.7712H36.7849L37.4114 9.21874V10.1138V10.5614V10.9194V12.1725V12.3515V12.7991V12.8886L36.8744 15.3053L34.9949 17.185L35.8899 16.5584L38.038 14.4102L38.1274 14.2312L38.754 11.6355H38.8435L38.754 8.05513Z" fill="url(#paint15_linear_1_579)"/>
<path d="M22.1962 23.7195V25.4201L26.8502 25.7782V24.0775L22.1962 23.7195Z" fill="#2C973C"/>
<path d="M52.4482 26.0466V26.4046L57.1023 26.0466L57.0128 25.6886L52.4482 26.0466Z" fill="#2C973C"/>
<path d="M37.2329 30.1651V30.0756L34.8164 27.8379L32.7579 26.6742L30.7889 25.5107L26.8508 24.168V25.0631V25.8687L30.7889 27.2113H30.8784L32.8474 28.3749H32.9369L33.0264 28.4644L33.1159 28.5539H33.2054L33.2949 28.6434H33.3844V28.733H33.4739L33.5634 28.8225H33.6529L33.7424 28.912H33.8319V29.0015H33.9214L34.0109 29.091L34.1899 29.1805L35.1744 29.7176L35.4429 29.9861L36.7854 31.2392L37.5015 31.9553L38.2175 34.551V33.7454V32.9398L37.2329 30.1651Z" fill="url(#paint16_linear_1_579)"/>
<path d="M42.1551 15.3958L41.5287 12.7106V11.0099V10.9204V10.0253V9.21976L41.9762 8.95125L42.4237 8.59321L42.7817 8.14567V8.05617L42.8712 7.69813V7.60863L42.7817 7.16108L41.7076 6.62403L41.6182 6.53452L41.5287 6.80304L41.4391 7.07157L41.0812 7.3401L40.2756 8.05617V11.547L40.9916 14.1427L41.1706 14.3217L43.1397 16.4699L44.2137 17.186L42.1551 15.3958Z" fill="#B2C9B6"/>
<path d="M33.5632 28.8214L33.4737 28.7319H33.3842L33.2947 28.6424H33.2051V28.5529H33.1157L33.0262 28.4633L32.9366 28.3739L32.8472 28.2843H32.7576L30.7887 27.1207H30.6991L26.8506 25.8676L22.1965 25.5096H16.1105V25.8676H22.1965L26.3136 26.2256H26.8506L27.7456 26.5837L28.4616 26.7627L30.8781 27.5683L31.1466 27.6578L33.5632 28.8214Z" fill="#98AD9D"/>
<path d="M22.1962 21.9292V23.8088L26.8502 24.1669V22.2872L22.1962 21.9292Z" fill="#36A94C"/>
<path d="M16.1092 21.9297L14.8562 22.3773L14.4982 22.4668L13.9611 22.5563H13.5136H12.9766L12.5291 22.3773L12.2606 22.2878L11.9026 22.0192L11.8131 21.7507L11.7236 21.4822L11.8131 21.3032L11.5446 21.3927L11.1866 21.4822V21.5717L10.9181 21.6612L10.5601 22.0192L10.4706 22.1087L10.3811 22.4668V22.5563L10.4706 22.9143L10.5601 23.0038L10.8286 23.3619V23.4514L11.2761 23.8094L11.9026 24.1674L12.7081 24.3464L13.5136 24.4359H14.4086L15.2142 24.2569L15.9302 23.9884L16.2882 23.7199H22.3742V21.8402H16.1092V21.9297Z" fill="url(#paint17_linear_1_579)"/>
<path d="M38.486 28.9108L36.3379 26.5836L33.7424 24.9724L30.8784 23.5403L26.8508 22.2872V24.1668L30.7889 25.5095L32.7579 26.6731L34.8164 27.8367L37.2329 30.0744V30.1639L37.8594 32.7596V33.5652V34.3708V34.6393V35.3554L38.0385 35.1763L38.844 34.8183V34.7288L38.9335 34.6393L39.1125 34.3708V31.6855L38.486 28.9108Z" fill="url(#paint18_linear_1_579)"/>
<path d="M26.8502 22.2883V20.8561L22.1962 21.2142V21.9302L26.8502 22.2883Z" fill="#8ADB95"/>
<path d="M11.8137 21.7502L11.9032 22.0188L12.2612 22.2873L12.6192 22.3768L13.0667 22.5558H13.6037H14.0512L14.5882 22.4663L14.9462 22.3768L16.1992 21.9292H22.2853V21.2132L16.1097 21.1237L14.3197 20.4971L14.8567 21.9292L14.5882 22.1083L14.3197 22.1978L13.9617 22.2873L13.6037 22.3768L13.1562 22.2873L12.7982 22.1978L12.5297 22.1083L12.2612 21.9292L12.1717 21.7502L12.2612 21.5712L12.3507 21.3027L12.0822 20.9446H11.9927L11.9032 21.0342L11.7242 21.3922H11.6347L11.5452 21.5712L11.8137 21.7502Z" fill="#F9F9F9"/>
<path d="M42.3336 21.5723V21.0353H42.1546C42.0651 20.8562 41.7966 20.6772 41.6176 20.4982C40.5436 19.8717 38.7536 19.8717 37.7691 20.4982C37.5006 20.5877 37.3216 20.8562 37.2321 21.0353H37.0531V21.6618C37.0531 22.0199 37.3216 22.4674 37.8586 22.7359C38.9326 23.3625 40.7226 23.3625 41.7071 22.7359C42.1546 22.4674 42.4231 22.0198 42.3336 21.5723Z" fill="#B2C9B6"/>
<path d="M41.6175 22.1976C42.6915 21.571 42.602 20.5865 41.6175 19.9599C40.5435 19.3334 38.7535 19.3334 37.769 19.9599C36.695 20.5865 36.7845 21.571 37.769 22.1976C38.7535 22.8242 40.5435 22.8242 41.6175 22.1976Z" fill="#FAFAFA"/>
<path d="M52.4475 22.3767L48.42 23.7193L45.735 25.0619L43.3185 26.5836L41.081 28.9108L40.9915 29.0003V29.2688L40.4545 31.5065V32.7596L41.2599 32.2226L42.0655 31.6855L42.4235 30.2534V30.1639V30.0744L44.7505 27.8367L46.63 26.7626L48.5095 25.778L52.4475 24.4354V22.3767Z" fill="url(#paint19_linear_1_579)"/>
<path d="M57.1023 22.1082L52.4482 22.4662V24.3459L57.1023 23.9879V22.1082Z" fill="#36A94C"/>
<path d="M68.9154 22.7353C68.9154 21.9297 68.1994 21.3032 67.3044 21.3032C66.4989 21.3032 65.7829 21.8402 65.6934 22.5563H66.1409L66.4989 22.4668L66.7674 22.3773L67.0359 22.1982L67.1254 22.1087V21.9297L67.5729 22.1087L67.3044 22.2878L67.0359 22.4668L66.6779 22.5563L66.1409 22.6458H65.6934H65.6039L65.2459 22.5563L64.7984 22.4668L63.3663 21.9297H57.1908V23.8094L63.3663 23.8989L64.0823 24.257L64.8879 24.436L65.6934 24.5255L66.4989 24.436L67.3044 24.3465L68.0204 24.0779L68.5574 23.7199L68.6469 23.6304C68.7364 23.5409 68.8259 23.4514 68.9154 23.2724L69.0049 23.1828L69.0944 23.0933C68.9154 22.9143 69.0049 22.8248 68.9154 22.7353L69.0049 22.6458V22.5563C68.9154 22.8248 68.9154 22.8248 68.9154 22.7353Z" fill="url(#paint20_linear_1_579)"/>
<path d="M57.1023 22.1075L57.1919 21.3914H57.1023L52.4482 21.0334V22.4655L57.1023 22.1075Z" fill="#8ADB95"/>
<path d="M40.992 29.3583V29.0898L41.0815 29.0003L43.319 26.6731L45.646 25.062L48.4205 23.7193L52.4481 22.4662V21.0341L48.4205 19.781L45.5565 18.2593L44.1245 17.2747L43.14 16.6482L41.0815 14.5L40.992 14.4105L40.1865 11.7253V8.23444L40.992 7.51837L41.35 7.24985L41.4395 6.98133L41.529 6.7128L40.992 6.35477V6.7128L40.9025 6.80231V6.89181L40.634 7.07083L40.5445 7.16034L40.3654 7.24985L40.1865 7.42887H40.097L39.739 7.51837H39.381L39.0229 7.42887L38.665 7.33935L38.486 7.24985L38.3965 7.16034L38.3069 7.07083V6.98133L38.2175 6.89181H38.1279V6.7128H38.0384V6.44427L38.486 5.81772L37.77 6.17575L37.6804 6.44427V6.80231L37.77 7.07083L37.949 7.33935L38.7544 8.23444L38.844 11.7253L38.2175 14.321L38.0384 14.5L35.9799 16.6482L34.9954 17.2747L33.6529 18.1698L30.8784 19.5125L26.8508 20.7656V22.2872L30.8784 23.5403L33.7424 24.9725L36.2484 26.6731L38.486 29.0003L39.1125 31.5961V34.3708L39.2019 34.2813L39.2915 34.1918L39.381 34.1023L39.4704 33.9233L39.6495 33.8338L39.739 33.2967L39.9179 33.1177L40.1865 33.0282L40.276 32.9387L40.1865 31.6856L40.992 29.3583ZM39.6495 23.0928L38.9335 23.0033L38.3069 22.9138L37.77 22.7348L37.4119 22.4662L37.3224 22.3767L37.054 22.0187V21.8397L36.9644 21.6607V21.3026V21.2131L37.054 20.8551L37.4119 20.497L37.5015 20.4075L37.8594 20.139H37.949H38.0384L38.3069 20.0495L38.665 19.96C39.202 19.6915 39.918 19.6915 40.9025 19.96H40.992L41.529 20.2285L41.887 20.497L41.9765 20.5866L42.245 20.9446L42.3345 21.0341L42.424 21.3921V21.4816V21.7502L42.3345 22.1082V22.1977L41.9765 22.3767V22.4662L41.6185 22.8243L41.0815 23.0033L40.455 23.1823H39.6495V23.0928Z" fill="url(#paint21_linear_1_579)"/>
<path d="M63.1876 22.108L64.6196 22.6451L65.0671 22.7346L65.5146 22.8241H65.6041V22.7346C65.6041 22.645 65.6041 22.6451 65.6041 22.5556H65.2461L64.8881 22.466L64.5301 22.3765L64.3511 22.1975V22.0185V21.929L64.7091 21.8395L65.3356 20.7654L63.1876 21.571H57.1016V22.287L63.1876 22.108Z" fill="url(#paint22_linear_1_579)"/>
<path d="M65.6941 22.735H66.1416L66.5891 22.6455L66.9471 22.4665L67.3051 22.2875L67.4841 22.0189L67.0366 21.8399V21.9294L66.9471 22.0189L66.6786 22.1979L66.4101 22.2875L66.0521 22.377H65.6941C65.6941 22.556 65.6941 22.6455 65.6941 22.735Z" fill="#F9F9F9"/>
<path d="M37.1436 2.77472L34.1006 -3.05176e-05C34.6376 -3.05176e-05 34.9956 0.08948 35.0851 0.268496L38.3966 2.41668L37.7701 2.77472H37.1436Z" fill="#576779"/>
<path d="M36.9632 2.95372L33.9202 0.178982L34.0096 -3.05176e-05H34.0991L37.1422 2.7747L36.9632 2.95372Z" fill="#2C343D"/>
<path d="M37.2319 2.95338L37.6794 2.59534L38.306 2.32682L38.843 2.1478L39.1115 2.41632L37.5005 3.13239L37.2319 2.95338Z" fill="#414D5B"/>
<path d="M37.233 2.95512V3.04487L36.9637 2.95512L37.0535 2.7756L37.233 2.95512Z" fill="#2C343D"/>
<path d="M38.4863 3.13364L38.5758 3.40216L37.5018 3.13364L39.1129 2.50708L39.2919 3.22314L38.6654 3.13364H38.4863Z" fill="#414D5B"/>
<path d="M38.4864 3.40165L38.3969 3.58067L37.4124 3.22264L37.5019 3.04361L38.4864 3.40165Z" fill="#2C343D"/>
<path d="M37.6794 2.68585L37.2319 3.04389L37.1425 2.86487L37.6794 2.68585Z" fill="#576779"/>
<path d="M37.5012 3.13337L37.4114 3.31287L37.2319 3.13337V3.04361L37.5012 3.13337Z" fill="#2C343D"/>
<path d="M40.8114 6.80204V6.44401H40.6324C40.5429 6.3545 40.5429 6.35449 40.3639 6.26498C39.8269 5.90695 38.9319 5.90695 38.3949 6.26498C38.3054 6.35449 38.2158 6.3545 38.1263 6.44401H37.9474V6.89155C37.9474 7.07056 38.1264 7.24957 38.3949 7.42859C38.9319 7.78662 39.8269 7.78662 40.3639 7.42859C40.7219 7.24957 40.8114 7.07056 40.8114 6.80204Z" fill="url(#paint23_linear_1_579)"/>
<path d="M40.454 5.81799C39.917 5.45996 39.022 5.45996 38.485 5.81799C37.948 6.17602 37.948 6.62357 38.485 6.9816C39.022 7.33963 39.917 7.33963 40.454 6.9816C40.991 6.71307 40.991 6.17602 40.454 5.81799Z" fill="#FAFAFA"/>
<path d="M40.5441 6.3556V4.47592H38.3961V6.4451C38.3961 6.53461 38.4856 6.80314 38.7541 6.89264C39.1121 7.16117 39.8282 7.16117 40.1862 6.89264C40.3652 6.71363 40.5441 6.53462 40.5441 6.3556Z" fill="url(#paint24_linear_1_579)"/>
<path d="M40.186 3.94022C39.828 3.6717 39.112 3.6717 38.754 3.94022C38.396 4.20875 38.396 4.56678 38.754 4.83531C39.112 5.10383 39.828 5.10383 40.186 4.83531C40.544 4.56678 40.544 4.20875 40.186 3.94022Z" fill="url(#paint25_linear_1_579)"/>
<path d="M40.007 3.75978C39.649 3.58076 39.112 3.58076 38.754 3.75978C38.396 3.9388 38.396 4.29683 38.754 4.47585C39.112 4.65487 39.649 4.65487 40.007 4.47585C40.365 4.29683 40.365 4.02831 40.007 3.75978Z" fill="url(#paint26_linear_1_579)"/>
<path d="M39.0221 4.02894C39.1116 3.93943 39.2906 3.84991 39.3801 3.84991C39.5591 3.84991 39.7382 3.93943 39.7382 4.02894H39.8277V4.11844C39.8277 4.20795 39.6487 4.47649 39.3801 4.47649C39.1116 4.47649 38.9326 4.38697 38.9326 4.11844L39.0221 4.02894Z" fill="#B2C9B6"/>
<path d="M38.4855 3.22263C38.4855 3.31213 38.4855 3.31213 38.4855 3.22263C38.4855 3.31213 38.4855 3.31213 38.4855 3.22263C38.4855 3.31213 38.4855 3.31213 38.575 3.31213L39.7385 4.11771C39.828 4.20722 40.186 4.20721 40.365 4.20721C40.365 4.20721 40.365 4.20721 40.4545 4.20721C40.4545 4.20721 40.544 4.20722 40.544 4.11771V4.47574C40.544 4.56525 40.4545 4.56524 40.4545 4.65475C40.4545 4.65475 40.4545 4.65475 40.365 4.65475C40.186 4.74426 39.828 4.74427 39.7385 4.56525L38.575 3.75967C38.4855 3.67016 38.4855 3.67016 38.4855 3.58065V3.22263Z" fill="url(#paint27_linear_1_579)"/>
<path d="M40.544 4.02767C40.4545 4.11718 40.4545 4.11718 40.544 4.02767C40.544 4.11718 40.544 4.11718 40.544 4.02767C40.4545 4.11718 40.4545 4.11718 40.4545 4.11718C40.4545 4.11718 40.4545 4.11718 40.365 4.11718C40.186 4.20669 39.828 4.20668 39.7385 4.02767L38.575 3.2221C38.575 3.2221 38.4855 3.22209 38.4855 3.13259C38.4855 3.04308 38.575 3.04308 38.575 2.95357C38.575 2.95357 38.575 2.95357 38.6645 2.95357C38.8435 2.86406 39.2015 2.86406 39.291 3.04307L40.365 3.84865C40.4545 3.93816 40.544 4.02767 40.544 4.02767Z" fill="#FAFAFA"/>
<path d="M39.0221 3.58192C39.1116 3.49241 39.2906 3.40289 39.3801 3.40289C39.5591 3.40289 39.7382 3.49241 39.7382 3.58192H39.8277V3.67142C39.8277 3.76093 39.6487 4.02947 39.3801 4.02947C39.1116 4.02947 38.9326 3.93995 38.9326 3.67142L39.0221 3.58192Z" fill="#B2C9B6"/>
<path d="M38.9326 3.58065C38.9326 3.67016 39.2011 3.84918 39.3801 3.84918C39.6487 3.84918 39.8277 3.75966 39.8277 3.49114C39.8277 3.40163 39.6487 3.13312 39.3801 3.13312C39.2011 3.31213 38.9326 3.40164 38.9326 3.58065Z" fill="#FAFAFA"/>
<path d="M39.6481 4.92372L39.5586 4.56569V4.38666L39.7376 4.92372V5.01323L39.6481 4.92372Z" fill="#2C343D"/>
<path d="M39.9181 5.1922L39.8284 5.10244V5.0127L40.1874 5.28195L40.0976 5.37171L39.9181 5.1922Z" fill="#2C343D"/>
<path d="M40.0072 5.37046L40.0967 5.28094L40.1862 5.997L40.0072 5.37046Z" fill="#2C343D"/>
<path d="M41.6182 4.56543L40.5442 5.63952L40.2757 5.99754L40.0967 5.28148L41.6182 4.56543Z" fill="#414D5B"/>
<path d="M41.7073 4.47592L41.8863 4.56544L40.5438 5.55003L41.7073 4.47592Z" fill="#414D5B"/>
<path d="M41.6169 4.56595L40.0954 5.28202L39.7374 5.01349L41.3484 4.29742H41.4379L41.6169 4.56595Z" fill="#414D5B"/>
<path d="M39.6497 4.47518L39.8287 4.38567H40.0077H40.0972L40.3657 4.20666L40.4552 4.11716V4.02765L41.3502 4.38567L39.7392 5.10173L39.6497 4.47518Z" fill="#414D5B"/>
<path d="M44.2136 7.96546H44.124L40.365 5.99628L40.6335 5.63824L41.9761 4.65366L42.0655 4.74316L42.155 4.83267L42.4236 5.1012V5.1907L44.9296 7.78644L44.3925 7.96546H44.2136Z" fill="#576779"/>
<path d="M44.3929 7.96683L44.4826 8.05658L44.3031 8.14634L44.2134 7.96683H44.3929Z" fill="#2C343D"/>
<path d="M44.8397 7.78656L44.9293 7.87606L44.3922 8.05506V7.96557L44.8397 7.78656Z" fill="#2C343D"/>
<path d="M44.2143 7.96683L44.3047 8.14766L44.1239 8.05724V7.96683H44.2143Z" fill="#2C343D"/>
<path d="M41.2601 6.62301L40.9022 6.444L40.8126 6.35449L40.5441 6.17547H40.4547L40.1862 5.99646H40.2756L44.0347 7.96563V8.05513L42.6922 7.42858L42.5132 7.33908L41.2601 6.62301Z" fill="#2C343D"/>
<path d="M63.4564 17.6331L60.4133 14.8584C60.9503 14.8584 61.3083 14.9479 61.3978 15.1269L64.7094 17.2751L64.0828 17.6331H63.4564Z" fill="#576779"/>
<path d="M63.367 17.8121L60.324 15.1269L60.4135 14.8584H60.5029L63.4565 17.6331L63.367 17.8121Z" fill="#2C343D"/>
<path d="M63.5448 17.8115L64.0818 17.543L64.7083 17.185L65.2453 17.0955L65.5138 17.2745L63.8133 17.9905L63.5448 17.8115Z" fill="#414D5B"/>
<path d="M63.5469 17.8117V17.9015L63.3674 17.8117L63.4572 17.6322L63.5469 17.8117Z" fill="#2C343D"/>
<path d="M64.7977 18.0823V18.3508L63.8131 17.9928L65.5137 17.2767L65.6927 17.9928L65.0662 17.9033L64.7977 18.0823Z" fill="#414D5B"/>
<path d="M64.7993 18.3493L64.7097 18.4388L63.7252 18.0808V17.9912L64.7993 18.3493Z" fill="#2C343D"/>
<path d="M64.0834 17.6322L63.5464 17.8112L63.4569 17.6322H64.0834Z" fill="#576779"/>
<path d="M63.814 18.0805V18.1702L63.5448 17.9907V17.8112L63.814 18.0805Z" fill="#2C343D"/>
<path d="M67.2152 21.7512V21.3932H67.0362C66.9467 21.3037 66.9467 21.3037 66.7677 21.2142C66.2307 20.8561 65.3357 20.8561 64.7987 21.2142C64.7092 21.3037 64.6197 21.3037 64.5302 21.3932H64.3512V21.8407C64.3512 22.0197 64.5302 22.1987 64.7987 22.3778C65.3357 22.7358 66.2307 22.7358 66.7677 22.3778C67.0362 22.1092 67.2152 21.9302 67.2152 21.7512Z" fill="url(#paint28_linear_1_579)"/>
<path d="M66.7685 20.7662C66.142 20.4977 65.247 20.4977 64.7995 20.7662C64.2625 21.1242 64.2625 21.5718 64.7995 21.9298C65.3365 22.2878 66.2315 22.2878 66.7685 21.9298C67.3055 21.6613 67.3055 21.1242 66.7685 20.7662Z" fill="url(#paint29_linear_1_579)"/>
<path d="M66.8568 21.302V19.4223H64.7087V21.3915C64.7087 21.481 64.7983 21.7495 65.0668 21.839C65.4248 22.1075 66.1407 22.1075 66.4987 21.839C66.7672 21.66 66.8568 21.481 66.8568 21.302Z" fill="url(#paint30_linear_1_579)"/>
<path d="M66.4987 18.8866C66.1407 18.6181 65.4247 18.6181 65.0667 18.8866C64.7087 19.1551 64.7087 19.5132 65.0667 19.7817C65.4247 20.0502 66.1407 20.0502 66.4987 19.7817C66.9462 19.4237 66.9462 19.0656 66.4987 18.8866Z" fill="url(#paint31_linear_1_579)"/>
<path d="M66.3197 18.7077C65.9617 18.5286 65.4247 18.5286 65.0667 18.7077C64.7087 18.8867 64.7087 19.2447 65.0667 19.4237C65.4247 19.6028 65.9617 19.6028 66.3197 19.4237C66.6777 19.1552 66.6777 18.8867 66.3197 18.7077Z" fill="url(#paint32_linear_1_579)"/>
<path d="M65.4242 18.9753C65.5137 18.8858 65.6927 18.7963 65.7822 18.7963C65.9612 18.7963 66.1402 18.8858 66.1402 18.9753H66.2297V19.0648C66.2297 19.1543 66.0507 19.4228 65.7822 19.4228C65.5137 19.4228 65.3347 19.3333 65.3347 19.0648L65.4242 18.9753Z" fill="url(#paint33_linear_1_579)"/>
<path d="M64.7982 18.1703C64.7982 18.2598 64.7982 18.2598 64.7982 18.1703C64.7982 18.2598 64.7982 18.2598 64.8877 18.2598L66.0512 19.0653C66.2302 19.1548 66.4987 19.1549 66.6777 19.1549C66.6777 19.1549 66.6777 19.1549 66.7672 19.1549C66.7672 19.1549 66.8568 19.1548 66.8568 19.0653V19.4234C66.8568 19.5129 66.7672 19.5129 66.7672 19.6024C66.7672 19.6024 66.7672 19.6024 66.6777 19.6024C66.4987 19.6919 66.1407 19.6919 66.0512 19.5129L65.0667 18.5283C64.9772 18.4388 64.9772 18.4388 64.9772 18.3493V18.1703H64.7982Z" fill="url(#paint34_linear_1_579)"/>
<path d="M66.8568 18.9756C66.7672 19.0651 66.7672 19.0651 66.7672 19.0651C66.7672 19.0651 66.7672 19.0651 66.6777 19.0651C66.4987 19.1546 66.1407 19.1546 66.0512 18.9756L64.8877 18.17C64.8877 18.17 64.7982 18.17 64.7982 18.0805C64.7982 17.991 64.8877 17.991 64.8877 17.9015C64.8877 17.9015 64.8877 17.9015 64.9772 17.9015C65.1562 17.812 65.5142 17.812 65.6037 17.991L66.7672 18.7966C66.8567 18.7966 66.8568 18.8861 66.8568 18.9756Z" fill="#FAFAFA"/>
<path d="M65.4242 18.5283C65.5137 18.4388 65.6927 18.3493 65.7822 18.3493C65.9612 18.3493 66.1402 18.4388 66.1402 18.5283H66.2297V18.6178C66.2297 18.7073 66.0507 18.9758 65.7822 18.9758C65.5137 18.9758 65.3347 18.8863 65.3347 18.6178L65.4242 18.5283Z" fill="url(#paint35_linear_1_579)"/>
<path d="M65.3347 18.5283C65.3347 18.6178 65.5137 18.8863 65.7822 18.8863C66.0507 18.8863 66.2297 18.7968 66.2297 18.5283C66.2297 18.4388 66.0507 18.1703 65.7822 18.1703C65.5137 18.2598 65.3347 18.3493 65.3347 18.5283Z" fill="#FAFAFA"/>
<path d="M66.0518 19.8701L65.9623 19.512V19.333L66.2308 19.8701L66.1413 19.9596L66.0518 19.8701Z" fill="#2C343D"/>
<path d="M66.2308 20.1388L66.1411 19.9593L66.2308 19.8696L66.5001 20.1388L66.4104 20.2286L66.2308 20.1388Z" fill="#2C343D"/>
<path d="M66.3201 20.2289L66.5886 20.8554L66.4991 20.9449L66.3201 20.2289Z" fill="#2C343D"/>
<path d="M67.9311 19.4223L66.8571 20.4964L66.5886 20.8544L66.4095 20.1383L67.9311 19.4223Z" fill="#414D5B"/>
<path d="M68.0201 19.4223L68.1095 19.5118L66.8566 20.4964L68.0201 19.4223Z" fill="#414D5B"/>
<path d="M67.9311 19.4226L66.4096 20.1386L66.1411 19.8701L67.7521 19.1541L67.8416 19.2436L67.9311 19.4226Z" fill="#414D5B"/>
<path d="M65.8729 19.3331H66.1415L66.3204 19.2436H66.41L66.7679 19.0645L66.8575 18.975V18.8855L67.842 19.154L66.1415 19.8701L65.8729 19.3331Z" fill="#414D5B"/>
<path d="M70.5263 22.9144L70.3473 22.8249L66.5883 20.8557L66.8568 20.4977L68.1097 19.5131L68.2888 19.6026L68.3783 19.6921L68.6468 19.9606V20.0501L71.1528 22.5563L70.6158 22.7354L70.5263 22.9144Z" fill="#576779"/>
<path d="M70.7072 22.825L70.797 22.9147L70.5277 23.0045V22.9147L70.7072 22.825Z" fill="#2C343D"/>
<path d="M71.2435 22.6462V22.7357L70.796 22.9148L70.7065 22.8252L71.2435 22.6462Z" fill="#2C343D"/>
<path d="M70.5281 22.9154V23.0058L70.3473 22.9154V22.825L70.5281 22.9154Z" fill="#2C343D"/>
<path d="M67.6622 21.4827L67.3043 21.3037L67.2147 21.2142L66.9462 21.1247L66.8568 21.0352L66.5883 20.9457L66.6777 20.8561L70.4368 22.8253V22.9148L69.0943 22.2883L68.8258 22.1988L67.6622 21.4827Z" fill="#2C343D"/>
<path d="M15.8418 17.6331L18.7058 15.0374C18.1688 15.0374 17.9003 15.1269 17.7213 15.2164L14.5887 17.2751L15.2153 17.5436L15.8418 17.6331Z" fill="#576779"/>
<path d="M15.8407 17.8121L18.7942 15.2164L18.7047 15.0374L15.8407 17.6331V17.8121Z" fill="#2C343D"/>
<path d="M15.6633 17.8115L15.2158 17.543L14.5893 17.2745L14.1418 17.0955L13.8733 17.2745L15.3948 17.9905L15.6633 17.8115Z" fill="#414D5B"/>
<path d="M15.6635 17.8117V17.9015L15.8429 17.8117L15.7532 17.6322L15.6635 17.8117Z" fill="#2C343D"/>
<path d="M14.4998 17.9928V18.3508L15.4843 17.9928L13.9628 17.2767L13.7838 17.9928L14.3208 17.9033L14.4998 17.9928Z" fill="#414D5B"/>
<path d="M14.4993 18.2585L14.5887 18.348L15.5733 17.99L15.4838 17.9005L14.4993 18.2585Z" fill="#2C343D"/>
<path d="M15.2147 17.5427L15.6622 17.8112L15.7517 17.6322L15.2147 17.5427Z" fill="#576779"/>
<path d="M15.3951 17.9907L15.4849 18.0805L15.6644 17.901V17.8112L15.3951 17.9907Z" fill="#2C343D"/>
<path d="M14.9471 21.4815V21.1234H14.7681C14.6786 21.0339 14.6786 21.0339 14.5891 20.9444C14.0521 20.5864 13.1571 20.5864 12.7096 20.9444C12.6201 21.0339 12.6201 21.0339 12.5306 21.1234H12.3516V21.571C12.3516 21.75 12.5306 21.929 12.7096 22.108C13.2466 22.466 14.1416 22.466 14.5891 22.108C14.7681 21.929 14.9471 21.75 14.9471 21.4815Z" fill="url(#paint36_linear_1_579)"/>
<path d="M14.4989 20.5854C13.9619 20.2273 13.0669 20.2273 12.6194 20.5854C12.0824 20.9434 12.0824 21.3909 12.6194 21.6595C13.1564 22.0175 14.0514 22.0175 14.4989 21.6595C14.9464 21.3014 15.0359 20.9434 14.4989 20.5854Z" fill="url(#paint37_linear_1_579)"/>
<path d="M14.5889 21.0337V19.1541H12.5304V21.1232C12.5304 21.2128 12.6199 21.4813 12.8884 21.5708C13.2464 21.8393 13.8729 21.8393 14.3204 21.5708C14.4994 21.4813 14.5889 21.2128 14.5889 21.0337Z" fill="url(#paint38_linear_1_579)"/>
<path d="M14.3204 18.7079C13.9624 18.4393 13.3359 18.4393 12.8884 18.7079C12.5304 18.9764 12.5304 19.2449 12.8884 19.5134C13.2464 19.782 13.8729 19.782 14.3204 19.5134C14.6784 19.3344 14.6784 18.9764 14.3204 18.7079Z" fill="url(#paint39_linear_1_579)"/>
<path d="M14.1413 18.6182C13.7832 18.4392 13.3357 18.4392 12.9777 18.6182C12.6197 18.7972 12.6197 19.1552 12.9777 19.3343C13.3357 19.5133 13.7832 19.5133 14.1413 19.3343C14.4993 19.0657 14.4993 18.7972 14.1413 18.6182Z" fill="url(#paint40_linear_1_579)"/>
<path d="M13.9635 18.7986C13.874 18.7091 13.7845 18.6196 13.6055 18.6196C13.4265 18.6196 13.2474 18.7091 13.2474 18.7986H13.158V18.8881C13.158 18.9776 13.337 19.1566 13.6055 19.1566C13.874 19.1566 14.053 19.0671 14.053 18.8881L13.9635 18.7986Z" fill="url(#paint41_linear_1_579)"/>
<path d="M14.4994 18.0795C14.4099 18.169 14.4099 18.169 14.4099 18.169L13.3359 18.9746C13.2464 19.0641 12.8884 19.0641 12.7094 19.0641C12.7094 19.0641 12.7094 19.0641 12.6199 19.0641C12.6199 19.0641 12.5304 19.0641 12.5304 18.9746V19.3326C12.5304 19.4221 12.6199 19.4221 12.6199 19.5116C12.6199 19.5116 12.6199 19.5116 12.7094 19.5116C12.8884 19.6011 13.1569 19.6011 13.3359 19.4221L14.4099 18.6166C14.4994 18.527 14.4994 18.527 14.4994 18.4375V18.0795Z" fill="url(#paint42_linear_1_579)"/>
<path d="M12.5304 18.8861C12.5304 18.9756 12.5304 18.9756 12.5304 18.8861C12.5304 18.9756 12.6199 18.9756 12.6199 18.9756C12.6199 18.9756 12.6199 18.9756 12.7094 18.9756C12.8884 19.0651 13.1569 19.0651 13.3359 18.8861L14.4099 18.0805C14.4099 18.0805 14.4994 18.0805 14.4994 17.991C14.4994 17.9015 14.4099 17.9015 14.4099 17.812C14.4099 17.812 14.4099 17.812 14.3204 17.812C14.1414 17.7225 13.8729 17.7225 13.6939 17.9015L12.5304 18.7071C12.6199 18.7071 12.5304 18.7071 12.5304 18.8861C12.5304 18.7966 12.5304 18.8861 12.5304 18.8861Z" fill="#FAFAFA"/>
<path d="M13.9635 18.3493C13.874 18.2598 13.7845 18.1703 13.6055 18.1703C13.4265 18.1703 13.2474 18.2598 13.2474 18.3493H13.158V18.4388C13.158 18.5283 13.337 18.7073 13.6055 18.7073C13.874 18.7073 14.053 18.6178 14.053 18.4388L13.9635 18.3493Z" fill="url(#paint43_linear_1_579)"/>
<path d="M13.6055 18.7073C13.874 18.7073 14.053 18.6178 14.053 18.4388C14.053 18.2598 13.874 18.1703 13.6055 18.1703C13.337 18.1703 13.158 18.2598 13.158 18.4388C13.158 18.5283 13.337 18.7073 13.6055 18.7073Z" fill="#FAFAFA"/>
<path d="M13.3369 19.6911L13.4264 19.3331V19.1541L13.158 19.6911L13.2474 19.7806L13.3369 19.6911Z" fill="#2C343D"/>
<path d="M13.1557 19.9609L13.2454 19.8711L13.1557 19.7813L12.8865 20.0506L12.9762 20.1404L13.1557 19.9609Z" fill="#2C343D"/>
<path d="M12.9777 20.1391L12.7987 20.6761L12.8882 20.7657L12.9777 20.1391Z" fill="#2C343D"/>
<path d="M11.4557 19.333L12.4402 20.4071L12.7982 20.6757L12.8877 20.0491L11.4557 19.333Z" fill="#414D5B"/>
<path d="M11.3664 19.333L11.2769 19.4226L12.5298 20.4071L11.3664 19.333Z" fill="#414D5B"/>
<path d="M11.4557 19.3346L12.8877 20.0507L13.1562 19.7822L11.6347 19.0661L11.5452 19.1556L11.4557 19.3346Z" fill="#414D5B"/>
<path d="M13.4247 19.1546H13.2456H13.0667L12.9772 19.0651L12.6192 18.8861L12.5297 18.7965V18.707L11.6346 18.9756L13.1562 19.6916L13.4247 19.1546Z" fill="#414D5B"/>
<path d="M9.04036 22.6446L9.12987 22.5551L12.7994 20.6754L12.4414 20.4069L11.1884 19.4223L11.0989 19.6013H11.0094L10.7409 19.8698V19.9594L8.32434 22.376L8.86135 22.5551L9.04036 22.6446Z" fill="#576779"/>
<path d="M8.86124 22.5552L8.77148 22.6449L8.95099 22.7347L9.04075 22.6449L8.86124 22.5552Z" fill="#2C343D"/>
<path d="M8.32434 22.3767V22.4662L8.77184 22.6452L8.86135 22.5557L8.32434 22.3767Z" fill="#2C343D"/>
<path d="M9.04075 22.6456L8.95032 22.736L9.13119 22.6456V22.5552L9.04075 22.6456Z" fill="#2C343D"/>
<path d="M11.8141 21.3024L12.1721 21.1234L12.2616 21.0339L12.5301 20.9444L12.6196 20.8549L12.9776 20.7654L12.8881 20.6759L9.21851 22.5555V22.645L10.4715 22.0185L10.6505 21.929L11.8141 21.3024Z" fill="#2C343D"/>
<path d="M38.2173 14.2322L38.9333 11.6365H40.0967L40.8127 14.2322H38.2173Z" fill="#36A94C"/>
<path d="M36.9637 15.3063L38.2168 14.2322L38.9328 11.6365L37.5008 12.8001L36.9637 15.3063Z" fill="#8ADB95"/>
<path d="M40.8127 14.2322L42.1552 15.3958L41.5287 12.7106L40.0967 11.6365L40.8127 14.2322Z" fill="#2C973C"/>
<path d="M54.1483 38.8462L54.0589 39.3832L53.1638 39.9203C53.0743 39.5622 52.8058 39.3832 52.5373 39.1147C52.1793 38.9357 52.0003 39.0252 51.7318 39.2042L42.5132 44.4852V46.0963L41.6182 46.6334C41.5287 46.2753 41.2602 46.0068 40.9022 45.8278C40.3652 45.5593 40.0072 45.7383 40.0072 46.3648C40.0072 46.9019 40.3652 47.6179 40.9022 47.8865C40.9917 47.976 41.1707 47.976 41.2602 47.976L41.3497 48.0655L41.6182 47.976L42.6027 47.4389L54.2378 40.7258C54.5063 40.6363 54.5958 40.4573 54.5958 40.0993C54.5063 39.5622 54.4168 39.2042 54.1483 38.8462Z" fill="url(#paint44_linear_1_579)"/>
<path d="M40.8129 45.9171C40.2758 45.6486 39.9178 45.8276 39.9178 46.4541C39.9178 46.9912 40.2758 47.7072 40.8129 47.9758C41.3499 48.2443 41.7079 48.0653 41.7079 47.4387C41.6184 46.9017 41.2604 46.1856 40.8129 45.9171Z" fill="url(#paint45_linear_1_579)"/>
<path d="M40.5444 46.3647C40.1864 46.1857 39.9178 46.2752 39.9178 46.7228C39.9178 47.0808 40.1864 47.6178 40.5444 47.7968C40.9023 47.9759 41.1709 47.8864 41.1709 47.4388C41.1709 46.9913 40.9023 46.5437 40.5444 46.3647Z" fill="#47546A"/>
<path d="M39.8269 35.356C38.8424 35.356 37.9474 35.8931 37.9474 36.4301C37.9474 37.0567 38.7529 37.5042 39.8269 37.5042C40.9009 37.5042 41.7064 36.9672 41.7064 36.4301C41.7064 35.8931 40.8114 35.356 39.8269 35.356Z" fill="#F9F9F9"/>
<path d="M39.2015 31.5977L38.4855 28.9125H41.081L40.4545 31.5082L39.2015 31.5977Z" fill="#36A94C"/>
<path d="M39.2009 31.5977L37.8584 32.6718L37.2319 29.9866L38.485 28.9125L39.2009 31.5977Z" fill="#8ADB95"/>
<path d="M37.8584 32.759V34.1911L37.769 34.2806L37.1425 31.8639L37.2319 30.1633L37.8584 32.759Z" fill="#8ADB95"/>
<path d="M42.4221 30.075V31.5072L42.0641 31.5966L42.4221 30.075Z" fill="#2C973C"/>
<path d="M40.4545 31.5962L41.081 29.0005L42.4235 30.0746L41.976 31.9542L41.1705 32.3123L40.4545 31.5962Z" fill="#2C973C"/>
<path d="M42.1545 32.6708L45.0185 30.075C44.4815 30.075 44.1235 30.1645 44.034 30.254L40.9015 32.3127L41.528 32.5812L42.1545 32.6708Z" fill="#576779"/>
<path d="M42.1536 32.8498L45.0176 30.254V30.075H44.9281L42.0641 32.6708L42.1536 32.8498Z" fill="#2C343D"/>
<path d="M41.9762 32.8494L41.5287 32.5809L40.9022 32.2229L40.4546 32.1334L40.1862 32.3124L41.7076 32.9389L41.9762 32.8494Z" fill="#414D5B"/>
<path d="M41.9762 32.8507V33.0302L42.1557 32.9404L42.0659 32.7609L41.9762 32.8507Z" fill="#2C343D"/>
<path d="M40.8127 33.0284V33.297L41.7972 32.9389L40.1862 32.3124L40.0072 33.0284L40.5442 32.8494L40.8127 33.0284Z" fill="#414D5B"/>
<path d="M40.8121 33.2977L40.9017 33.3872L41.7967 33.1187V33.0292L40.8121 33.2977Z" fill="#2C343D"/>
<path d="M41.5275 32.5806L41.975 32.8492L42.0645 32.6701L41.5275 32.5806Z" fill="#576779"/>
<path d="M41.708 33.0297V33.2092L41.9773 33.0297V32.9399L41.708 33.0297Z" fill="#2C343D"/>
<path d="M41.2598 36.6086V36.2506H41.0809C40.9914 36.1611 40.9913 36.1611 40.9018 36.0716C40.3648 35.7135 39.4698 35.7135 39.0223 36.0716C38.9328 36.1611 38.9328 36.1611 38.8433 36.2506H38.6643V36.6086C38.6643 36.7876 38.8433 36.9666 39.0223 37.1457C39.5593 37.5037 40.4543 37.5037 40.9018 37.1457C41.0808 36.9666 41.2598 36.7876 41.2598 36.6086Z" fill="url(#paint46_linear_1_579)"/>
<path d="M40.8117 35.6245C40.2747 35.2665 39.3797 35.2665 38.9322 35.6245C38.3952 35.9826 38.3952 36.4301 38.9322 36.6986C39.4692 37.0567 40.3642 37.0567 40.8117 36.6986C41.3487 36.4301 41.3487 35.9826 40.8117 35.6245Z" fill="url(#paint47_linear_1_579)"/>
<path d="M40.8107 36.1624V34.2827H38.7522V36.1624C38.7522 36.2519 38.8417 36.5204 39.1102 36.61C39.4682 36.8785 40.0947 36.8785 40.5422 36.61C40.8107 36.4309 40.9002 36.3414 40.8107 36.1624Z" fill="url(#paint48_linear_1_579)"/>
<path d="M40.5438 33.8327C40.1858 33.5642 39.5593 33.5642 39.1118 33.8327C38.7538 34.1013 38.7538 34.3698 39.1118 34.6383C39.4698 34.9069 40.0963 34.9069 40.5438 34.6383C40.9913 34.3698 40.9913 34.0118 40.5438 33.8327Z" fill="url(#paint49_linear_1_579)"/>
<path d="M40.4541 33.6548C40.0961 33.4758 39.6486 33.4758 39.2906 33.6548C38.9326 33.8338 38.9326 34.1919 39.2906 34.3709C39.6486 34.5499 40.0961 34.5499 40.4541 34.3709C40.8121 34.1023 40.8121 33.8338 40.4541 33.6548Z" fill="url(#paint50_linear_1_579)"/>
<path d="M40.2763 33.9239C40.1868 33.8344 40.0972 33.7449 39.9182 33.7449C39.7392 33.7449 39.5602 33.8344 39.5602 33.9239H39.4707V34.0134C39.4707 34.103 39.6497 34.282 39.9182 34.282C40.1867 34.282 40.3657 34.1925 40.3657 34.0134L40.2763 33.9239Z" fill="url(#paint51_linear_1_579)"/>
<path d="M40.8122 33.1187C40.8122 33.1187 40.8122 33.2082 40.8122 33.1187C40.8122 33.2082 40.8122 33.2082 40.8122 33.1187C40.8122 33.2082 40.8122 33.2082 40.8122 33.1187C40.7227 33.2082 40.7228 33.2082 40.7228 33.2082L39.6487 34.0137C39.5592 34.1033 39.2012 34.1033 39.0222 34.1033C39.0222 34.1033 39.0222 34.1033 38.9327 34.1033C38.9327 34.1033 38.8433 34.1033 38.8433 34.0137V34.3718C38.8433 34.4613 38.9327 34.4613 38.9327 34.5508C38.9327 34.5508 38.9327 34.5508 39.0222 34.5508C39.2012 34.6403 39.4697 34.6403 39.6487 34.4613L40.7228 33.6557C40.8123 33.5662 40.8122 33.5662 40.8122 33.4767V33.1187Z" fill="url(#paint52_linear_1_579)"/>
<path d="M38.8433 33.924C38.8433 34.0135 38.9327 34.0135 38.9327 34.0135C38.9327 34.0135 38.9327 34.0135 39.0222 34.0135C39.2012 34.103 39.4697 34.103 39.6487 33.924L40.7228 33.1184C40.7228 33.1184 40.8122 33.1184 40.8122 33.0289C40.8122 32.9394 40.7228 32.9394 40.7228 32.8499C40.7228 32.8499 40.7228 32.8499 40.6333 32.8499C40.4543 32.7604 40.1858 32.7603 40.0068 32.9394L38.9327 33.745C38.8432 33.745 38.8433 33.8345 38.8433 33.924Z" fill="#FAFAFA"/>
<path d="M40.2763 33.4752C40.1868 33.3856 40.0972 33.2962 39.9182 33.2962C39.7392 33.2962 39.5602 33.3856 39.5602 33.4752H39.4707V33.5647C39.4707 33.6542 39.6497 33.8332 39.9182 33.8332C40.1867 33.8332 40.3657 33.7437 40.3657 33.5647L40.2763 33.4752Z" fill="url(#paint53_linear_1_579)"/>
<path d="M40.2748 33.4767C40.2748 33.5662 40.0958 33.7452 39.8273 33.7452C39.5588 33.7452 39.3798 33.6557 39.3798 33.4767C39.3798 33.2977 39.5588 33.2082 39.8273 33.2082C40.0958 33.2082 40.2748 33.2977 40.2748 33.4767Z" fill="#FAFAFA"/>
<path d="M39.6497 34.8198L39.7393 34.4618V34.2827L39.4707 34.8198V34.9093L39.6497 34.8198Z" fill="#2C343D"/>
<path d="M39.4701 34.997L39.5598 34.9072V34.8175L39.2008 35.0868L39.2906 35.1765L39.4701 34.997Z" fill="#2C343D"/>
<path d="M39.2906 35.0878L39.2011 34.9982L39.0221 35.7143L39.1116 35.8038L39.2906 35.0878Z" fill="#2C343D"/>
<path d="M37.7701 34.371L38.7546 35.3555L39.0231 35.7136L39.1127 34.9975L37.7701 34.371Z" fill="#414D5B"/>
<path d="M37.6808 34.371L37.5913 34.4605L38.8443 35.4451L37.6808 34.371Z" fill="#414D5B"/>
<path d="M37.7701 34.371L39.2021 34.9975L39.5602 34.729L38.0386 34.1024H37.9492L37.7701 34.371Z" fill="#414D5B"/>
<path d="M39.6479 34.2815L39.4688 34.192H39.3794H39.2004L38.9319 34.013L38.8424 33.9234L37.9474 34.192L39.4688 34.8185L39.6479 34.2815Z" fill="#414D5B"/>
<path d="M35.2636 37.6825H35.4426L39.0226 35.8028L38.7541 35.4448L37.5011 34.4602L37.3221 34.5497L37.2326 34.6392L36.9641 34.9077L36.8746 34.9973L34.6371 37.5035L35.0846 37.6825H35.2636Z" fill="#576779"/>
<path d="M35.0858 37.6821V37.7725L35.2666 37.8629V37.6821H35.0858Z" fill="#2C343D"/>
<path d="M34.6371 37.5031L34.5476 37.5926L35.0846 37.7716V37.6821L34.6371 37.5031Z" fill="#2C343D"/>
<path d="M35.2631 37.6821V37.8629L35.4439 37.7725V37.6821H35.2631Z" fill="#2C343D"/>
<path d="M38.0375 36.4311L38.3955 36.2521L38.485 36.1626L38.7535 35.9836H38.843L39.1115 35.8941L39.022 35.715L35.4419 37.6842V37.7737L36.6949 37.1472L36.874 37.0577L38.0375 36.4311Z" fill="#2C343D"/>
<defs>
<linearGradient id="paint0_linear_1_579" x1="25.7906" y1="62.5315" x2="-3.05355" y2="74.4309" gradientUnits="userSpaceOnUse">
<stop offset="0.15" stop-color="#EDEDED"/>
<stop offset="1" stop-color="#DFDFDF"/>
</linearGradient>
<linearGradient id="paint1_linear_1_579" x1="73.9113" y1="68.1101" x2="18.5958" y2="56.2646" gradientUnits="userSpaceOnUse">
<stop offset="0.15" stop-color="#E6E6E6"/>
<stop offset="1" stop-color="#BBBBBB"/>
</linearGradient>
<linearGradient id="paint2_linear_1_579" x1="64.9168" y1="50.6" x2="-16.291" y2="8.67256" gradientUnits="userSpaceOnUse">
<stop offset="0.1927" stop-color="#E9E8E8"/>
<stop offset="1" stop-color="white"/>
</linearGradient>
<linearGradient id="paint3_linear_1_579" x1="32.4138" y1="35.3077" x2="31.1812" y2="33.1721" gradientUnits="userSpaceOnUse">
<stop stop-color="#313646"/>
<stop offset="1" stop-color="#4A566F"/>
</linearGradient>
<linearGradient id="paint4_linear_1_579" x1="24.3976" y1="38.0556" x2="26.1464" y2="38.0556" gradientUnits="userSpaceOnUse">
<stop stop-color="#313646"/>
<stop offset="1" stop-color="#4A566F"/>
</linearGradient>
<linearGradient id="paint5_linear_1_579" x1="24.3967" y1="38.1516" x2="25.6927" y2="38.1516" gradientUnits="userSpaceOnUse">
<stop stop-color="#313646"/>
<stop offset="1" stop-color="#4A566F"/>
</linearGradient>
<linearGradient id="paint6_linear_1_579" x1="63.2391" y1="24.6801" x2="68.9474" y2="24.6801" gradientUnits="userSpaceOnUse">
<stop stop-color="#A9CFB1"/>
<stop offset="1" stop-color="white"/>
</linearGradient>
<linearGradient id="paint7_linear_1_579" x1="25.2634" y1="31.9301" x2="27.7793" y2="31.9301" gradientUnits="userSpaceOnUse">
<stop stop-color="#A9CFB1"/>
<stop offset="1" stop-color="white"/>
</linearGradient>
<linearGradient id="paint8_linear_1_579" x1="36.4479" y1="37.5753" x2="43.0038" y2="37.5753" gradientUnits="userSpaceOnUse">
<stop stop-color="#A9CFB1"/>
<stop offset="1" stop-color="white"/>
</linearGradient>
<linearGradient id="paint9_linear_1_579" x1="41.4486" y1="9.41382" x2="42.7509" y2="9.41382" gradientUnits="userSpaceOnUse">
<stop stop-color="#B2C9B8"/>
<stop offset="1" stop-color="#D5E1D8"/>
</linearGradient>
<linearGradient id="paint10_linear_1_579" x1="31.1642" y1="31.0954" x2="36.4466" y2="31.0954" gradientUnits="userSpaceOnUse">
<stop stop-color="#A9CFB1"/>
<stop offset="1" stop-color="white"/>
</linearGradient>
<linearGradient id="paint11_linear_1_579" x1="32.2533" y1="33.7257" x2="37.0327" y2="33.7257" gradientUnits="userSpaceOnUse">
<stop stop-color="#A9CFB1"/>
<stop offset="1" stop-color="white"/>
</linearGradient>
<linearGradient id="paint12_linear_1_579" x1="57.09" y1="24.842" x2="63.2467" y2="24.842" gradientUnits="userSpaceOnUse">
<stop stop-color="#A9CFB1"/>
<stop offset="1" stop-color="white"/>
</linearGradient>
<linearGradient id="paint13_linear_1_579" x1="10.3804" y1="24.4563" x2="16.1666" y2="24.4563" gradientUnits="userSpaceOnUse">
<stop stop-color="#A9CFB1"/>
<stop offset="1" stop-color="white"/>
</linearGradient>
<linearGradient id="paint14_linear_1_579" x1="46.9482" y1="26.901" x2="48.7563" y2="33.5871" gradientUnits="userSpaceOnUse">
<stop offset="0.15" stop-color="#D5E1D8"/>
<stop offset="1" stop-color="#CCFCD5"/>
</linearGradient>
<linearGradient id="paint15_linear_1_579" x1="35.0486" y1="11.6274" x2="38.8963" y2="11.6274" gradientUnits="userSpaceOnUse">
<stop stop-color="#A9CFB1"/>
<stop offset="1" stop-color="white"/>
</linearGradient>
<linearGradient id="paint16_linear_1_579" x1="31.9712" y1="27.7233" x2="35.08" y2="36.5487" gradientUnits="userSpaceOnUse">
<stop offset="0.15" stop-color="#D5E1D8"/>
<stop offset="1" stop-color="#CCFCD5"/>
</linearGradient>
<linearGradient id="paint17_linear_1_579" x1="10.3802" y1="22.8848" x2="39.2264" y2="22.8848" gradientUnits="userSpaceOnUse">
<stop stop-color="#A9CFB1"/>
<stop offset="1" stop-color="white"/>
</linearGradient>
<linearGradient id="paint18_linear_1_579" x1="34.1138" y1="27.7024" x2="25.5401" y2="33.476" gradientUnits="userSpaceOnUse">
<stop offset="0.15" stop-color="#E3F1E6"/>
<stop offset="1" stop-color="#CCFCD5"/>
</linearGradient>
<linearGradient id="paint19_linear_1_579" x1="47.0345" y1="26.1853" x2="39.7979" y2="32.1011" gradientUnits="userSpaceOnUse">
<stop offset="0.15" stop-color="#E3F1E6"/>
<stop offset="1" stop-color="#CCFCD5"/>
</linearGradient>
<linearGradient id="paint20_linear_1_579" x1="40.4291" y1="22.8212" x2="68.9503" y2="22.8212" gradientUnits="userSpaceOnUse">
<stop stop-color="#A9CFB1"/>
<stop offset="1" stop-color="white"/>
</linearGradient>
<linearGradient id="paint21_linear_1_579" x1="26.8571" y1="20.0943" x2="52.449" y2="20.0943" gradientUnits="userSpaceOnUse">
<stop stop-color="#A9CFB1"/>
<stop offset="1" stop-color="white"/>
</linearGradient>
<linearGradient id="paint22_linear_1_579" x1="57.0989" y1="21.7303" x2="65.7169" y2="21.7303" gradientUnits="userSpaceOnUse">
<stop stop-color="#A9CFB1"/>
<stop offset="1" stop-color="white"/>
</linearGradient>
<linearGradient id="paint23_linear_1_579" x1="38.0253" y1="6.81635" x2="40.8499" y2="6.81635" gradientUnits="userSpaceOnUse">
<stop stop-color="#A9CFB1"/>
<stop offset="1" stop-color="white"/>
</linearGradient>
<linearGradient id="paint24_linear_1_579" x1="38.3809" y1="5.75857" x2="40.4931" y2="5.75857" gradientUnits="userSpaceOnUse">
<stop stop-color="#A9CFB1"/>
<stop offset="1" stop-color="white"/>
</linearGradient>
<linearGradient id="paint25_linear_1_579" x1="38.3799" y1="4.38061" x2="40.4975" y2="4.38061" gradientUnits="userSpaceOnUse">
<stop stop-color="#A9CFB1"/>
<stop offset="1" stop-color="white"/>
</linearGradient>
<linearGradient id="paint26_linear_1_579" x1="38.558" y1="4.15451" x2="40.2872" y2="4.15451" gradientUnits="userSpaceOnUse">
<stop stop-color="#A9CFB1"/>
<stop offset="1" stop-color="white"/>
</linearGradient>
<linearGradient id="paint27_linear_1_579" x1="38.4398" y1="3.98344" x2="40.4992" y2="3.98344" gradientUnits="userSpaceOnUse">
<stop stop-color="#A9CFB1"/>
<stop offset="1" stop-color="white"/>
</linearGradient>
<linearGradient id="paint28_linear_1_579" x1="64.3673" y1="21.7637" x2="67.1919" y2="21.7637" gradientUnits="userSpaceOnUse">
<stop stop-color="#A9CFB1"/>
<stop offset="1" stop-color="white"/>
</linearGradient>
<linearGradient id="paint29_linear_1_579" x1="64.3663" y1="21.3775" x2="67.191" y2="21.3775" gradientUnits="userSpaceOnUse">
<stop stop-color="#A9CFB1"/>
<stop offset="1" stop-color="white"/>
</linearGradient>
<linearGradient id="paint30_linear_1_579" x1="64.7177" y1="20.7031" x2="66.8317" y2="20.7031" gradientUnits="userSpaceOnUse">
<stop stop-color="#A9CFB1"/>
<stop offset="1" stop-color="white"/>
</linearGradient>
<linearGradient id="paint31_linear_1_579" x1="64.7177" y1="19.3252" x2="66.8352" y2="19.3252" gradientUnits="userSpaceOnUse">
<stop stop-color="#A9CFB1"/>
<stop offset="1" stop-color="white"/>
</linearGradient>
<linearGradient id="paint32_linear_1_579" x1="64.894" y1="19.0371" x2="66.624" y2="19.0371" gradientUnits="userSpaceOnUse">
<stop stop-color="#A9CFB1"/>
<stop offset="1" stop-color="white"/>
</linearGradient>
<linearGradient id="paint33_linear_1_579" x1="65.3419" y1="19.0675" x2="66.2494" y2="19.0675" gradientUnits="userSpaceOnUse">
<stop stop-color="#A9CFB1"/>
<stop offset="1" stop-color="white"/>
</linearGradient>
<linearGradient id="paint34_linear_1_579" x1="64.7803" y1="18.9293" x2="66.838" y2="18.9293" gradientUnits="userSpaceOnUse">
<stop stop-color="#A9CFB1"/>
<stop offset="1" stop-color="white"/>
</linearGradient>
<linearGradient id="paint35_linear_1_579" x1="65.3419" y1="18.6196" x2="66.2494" y2="18.6196" gradientUnits="userSpaceOnUse">
<stop stop-color="#A9CFB1"/>
<stop offset="1" stop-color="white"/>
</linearGradient>
<linearGradient id="paint36_linear_1_579" x1="12.2137" y1="21.5056" x2="14.9337" y2="21.5056" gradientUnits="userSpaceOnUse">
<stop stop-color="#A9CFB1"/>
<stop offset="1" stop-color="white"/>
</linearGradient>
<linearGradient id="paint37_linear_1_579" x1="12.2122" y1="21.1519" x2="14.9339" y2="21.1519" gradientUnits="userSpaceOnUse">
<stop stop-color="#A9CFB1"/>
<stop offset="1" stop-color="white"/>
</linearGradient>
<linearGradient id="paint38_linear_1_579" x1="12.5528" y1="20.4788" x2="14.588" y2="20.4788" gradientUnits="userSpaceOnUse">
<stop stop-color="#A9CFB1"/>
<stop offset="1" stop-color="white"/>
</linearGradient>
<linearGradient id="paint39_linear_1_579" x1="12.5554" y1="19.1644" x2="14.5951" y2="19.1644" gradientUnits="userSpaceOnUse">
<stop stop-color="#A9CFB1"/>
<stop offset="1" stop-color="white"/>
</linearGradient>
<linearGradient id="paint40_linear_1_579" x1="12.728" y1="18.9726" x2="14.3936" y2="18.9726" gradientUnits="userSpaceOnUse">
<stop stop-color="#A9CFB1"/>
<stop offset="1" stop-color="white"/>
</linearGradient>
<linearGradient id="paint41_linear_1_579" x1="13.1239" y1="18.9096" x2="13.9975" y2="18.9096" gradientUnits="userSpaceOnUse">
<stop stop-color="#A9CFB1"/>
<stop offset="1" stop-color="white"/>
</linearGradient>
<linearGradient id="paint42_linear_1_579" x1="12.5528" y1="18.7678" x2="14.5361" y2="18.7678" gradientUnits="userSpaceOnUse">
<stop stop-color="#A9CFB1"/>
<stop offset="1" stop-color="white"/>
</linearGradient>
<linearGradient id="paint43_linear_1_579" x1="13.1239" y1="18.4585" x2="13.9975" y2="18.4585" gradientUnits="userSpaceOnUse">
<stop stop-color="#A9CFB1"/>
<stop offset="1" stop-color="white"/>
</linearGradient>
<linearGradient id="paint44_linear_1_579" x1="47.8895" y1="44.2345" x2="46.657" y2="42.0999" gradientUnits="userSpaceOnUse">
<stop stop-color="#313646"/>
<stop offset="1" stop-color="#4A566F"/>
</linearGradient>
<linearGradient id="paint45_linear_1_579" x1="39.8695" y1="46.9715" x2="41.6184" y2="46.9715" gradientUnits="userSpaceOnUse">
<stop stop-color="#313646"/>
<stop offset="1" stop-color="#4A566F"/>
</linearGradient>
<linearGradient id="paint46_linear_1_579" x1="38.4934" y1="36.58" x2="41.2133" y2="36.58" gradientUnits="userSpaceOnUse">
<stop stop-color="#A9CFB1"/>
<stop offset="1" stop-color="white"/>
</linearGradient>
<linearGradient id="paint47_linear_1_579" x1="38.4918" y1="36.1634" x2="41.2127" y2="36.1634" gradientUnits="userSpaceOnUse">
<stop stop-color="#A9CFB1"/>
<stop offset="1" stop-color="white"/>
</linearGradient>
<linearGradient id="paint48_linear_1_579" x1="38.8345" y1="35.5546" x2="40.8689" y2="35.5546" gradientUnits="userSpaceOnUse">
<stop stop-color="#A9CFB1"/>
<stop offset="1" stop-color="white"/>
</linearGradient>
<linearGradient id="paint49_linear_1_579" x1="38.8352" y1="34.2373" x2="40.8749" y2="34.2373" gradientUnits="userSpaceOnUse">
<stop stop-color="#A9CFB1"/>
<stop offset="1" stop-color="white"/>
</linearGradient>
<linearGradient id="paint50_linear_1_579" x1="39.0051" y1="33.9815" x2="40.6716" y2="33.9815" gradientUnits="userSpaceOnUse">
<stop stop-color="#A9CFB1"/>
<stop offset="1" stop-color="white"/>
</linearGradient>
<linearGradient id="paint51_linear_1_579" x1="39.4018" y1="33.983" x2="40.2736" y2="33.983" gradientUnits="userSpaceOnUse">
<stop stop-color="#A9CFB1"/>
<stop offset="1" stop-color="white"/>
</linearGradient>
<linearGradient id="paint52_linear_1_579" x1="38.8325" y1="33.8437" x2="40.8149" y2="33.8437" gradientUnits="userSpaceOnUse">
<stop stop-color="#A9CFB1"/>
<stop offset="1" stop-color="white"/>
</linearGradient>
<linearGradient id="paint53_linear_1_579" x1="39.4018" y1="33.5325" x2="40.2736" y2="33.5325" gradientUnits="userSpaceOnUse">
<stop stop-color="#A9CFB1"/>
<stop offset="1" stop-color="white"/>
</linearGradient>
</defs>
</svg>
