<svg width="46" height="42" viewBox="0 0 46 42" fill="none" xmlns="http://www.w3.org/2000/svg">
<path d="M0.740723 27.1692V10.4031L26.2623 24.7493V41.5154L0.740723 27.1692Z" fill="url(#paint0_linear_1_402)"/>
<path d="M45.1009 31.1472V14.3813L26.2622 24.7521V41.5179L45.1009 31.1472Z" fill="url(#paint1_linear_1_402)"/>
<path d="M0.740723 10.4044L19.5794 0.0336304L45.101 14.3799L26.2623 24.7506L0.740723 10.4044Z" fill="url(#paint2_linear_1_402)"/>
<path d="M34.8469 9.19445V7.92691C34.8469 7.92691 34.2708 6.14083 32.3696 5.2766C30.4109 4.41237 29.3163 3.0296 24.5346 3.14483C19.6952 3.26006 16.0657 6.31368 16.0657 6.31368L16.9299 5.79514V7.46599C16.0081 8.04214 15.432 8.44545 15.3744 8.50306L15.7777 8.67591C15.7777 8.67591 16.8723 7.81168 18.543 7.00506C20.0985 6.25606 22.1725 5.44945 24.765 5.33422C26.7814 5.21899 28.6825 5.62229 30.4109 6.54414L32.6001 7.75406C33.5795 8.33022 34.2708 8.96399 34.5588 9.65537C34.5588 9.59776 34.6164 9.54014 34.6164 9.48252C34.7317 9.59776 34.7893 9.71299 34.7893 9.71299L34.8469 9.19445Z" fill="url(#paint3_linear_1_402)"/>
<path d="M35.3065 10.636C35.3065 10.5783 35.3065 10.5783 35.3065 10.5207V8.5618L34.2695 10.7512L30.7553 13.4015L30.6401 13.5743V15.2452C29.6607 15.7637 28.9117 16.1094 28.9117 16.1094L29.1998 16.3399C29.2574 16.3399 30.6977 15.7061 32.2532 14.7266C33.6934 13.7472 35.0761 12.5373 35.3065 10.9816C35.2489 10.8664 35.3065 10.8088 35.3065 10.636Z" fill="#B4CBB9"/>
<path d="M15.7762 8.21555L16.7556 7.46655V5.3924L15.7762 5.7957L15.1425 6.25662V8.56124L15.7762 8.21555Z" fill="#E8E7EC"/>
<path d="M35.2509 8.90629C35.0204 10.4619 33.6377 11.6718 32.1975 12.5937C31.6214 12.9394 31.0453 13.2851 30.5844 13.5155L30.2387 13.285C30.6996 13.0546 31.2757 12.7089 31.8518 12.3632C33.2345 11.499 34.5595 10.2891 34.79 8.84867C34.9628 7.69636 34.2139 6.60167 32.6008 5.62221L30.4115 4.41223C28.6832 3.49038 26.7821 3.08713 24.7657 3.20236C22.1732 3.31759 20.0992 4.12421 18.5437 4.87321C17.91 5.16128 17.3915 5.50698 16.9306 5.79506L16.585 5.56454C17.0458 5.27646 17.5643 4.98844 18.2557 4.64275C19.8688 3.83613 22.0004 3.02952 24.7657 2.91428C26.9549 2.79905 28.9713 3.25998 30.7572 4.23944L33.004 5.44936C34.6747 6.48644 35.4813 7.69636 35.2509 8.90629Z" fill="white"/>
<path d="M16.7556 5.45047L17.1588 5.73855L16.4675 6.37232L15.8338 6.83324L15.1425 6.25709L15.7762 5.79616L16.7556 5.45047Z" fill="#F6F6F8"/>
<path d="M16.4703 8.79034L17.1616 7.81088V5.73672L16.4703 6.37049L15.8365 6.83142V9.07842L16.4703 8.79034Z" fill="#CFCFDA"/>
<path d="M29.2573 15.9334L30.2366 15.1844V13.1103L29.2573 13.5136L28.6235 13.9745V16.2791L29.2573 15.9334Z" fill="#A0A6C0"/>
<path d="M30.237 13.1103L30.7555 13.5136L30.0066 14.0321L29.3728 14.493L28.6815 13.9745L29.3152 13.5136L30.237 13.1103Z" fill="white"/>
<path d="M30.0058 16.4547L30.7547 15.5328V13.4586L30.0058 13.9772L29.3721 14.4381V16.7427L30.0058 16.4547Z" fill="#D7E3DA"/>
<path d="M26.3768 17.1458C27.6443 15.0717 27.6443 12.767 26.3768 12.0757C25.167 11.3843 23.1505 12.479 21.8831 14.6107C20.6156 16.6849 20.6156 18.9895 21.8831 19.6809C23.1505 20.3723 25.167 19.22 26.3768 17.1458Z" fill="#3D424C"/>
<path d="M26.9532 12.3659L26.3771 12.0778L21.8259 19.6254L23.2085 20.3744L27.4717 12.654L26.9532 12.3659Z" fill="#3D424C"/>
<path d="M27.3572 17.6643C28.6246 15.5902 28.6246 13.2855 27.3572 12.5941C26.1474 11.9028 24.131 12.9975 22.8635 15.1292C21.5961 17.2034 21.5961 19.508 22.8635 20.1994C24.131 20.8908 26.1474 19.7961 27.3572 17.6643Z" fill="#464B54"/>
<path d="M27.5873 17.7805C28.8548 15.7063 28.8548 13.4017 27.5873 12.7103C26.3775 12.0189 24.3611 13.1136 23.0936 15.2454C21.8262 17.3195 21.8262 19.6241 23.0936 20.3155C24.3035 21.0069 26.3199 19.8546 27.5873 17.7805Z" fill="#41464F"/>
<path d="M28.5101 13.3433L27.7612 12.94C27.1851 12.5367 26.3209 12.5367 25.3991 13.0552C23.6708 14.0347 22.2881 16.3393 22.2881 18.2982C22.2881 19.3353 22.6914 20.0843 23.3827 20.3148L24.1317 20.7181L24.3045 20.3724C24.6502 20.3148 24.9959 20.1995 25.3991 19.9691C27.1274 18.9896 28.5101 16.6274 28.5101 14.6685C28.5101 14.2075 28.4525 13.8619 28.2797 13.5738L28.5101 13.3433Z" fill="url(#paint4_linear_1_402)"/>
<path d="M29.8918 15.1291L29.0853 13.8615C29.0853 13.8039 29.0277 13.7463 28.9701 13.6887V13.6311C28.394 12.9397 27.4722 12.8821 26.3776 13.4582C24.6493 14.4377 23.2666 16.8575 23.2666 18.7588C23.2666 19.8535 23.7275 20.5449 24.4188 20.833C24.534 20.8906 24.6493 20.8906 24.7645 20.8906L25.7439 21.1211L26.0895 20.6602C26.2047 20.6025 26.32 20.5449 26.3776 20.4873C27.8755 19.6231 29.2005 17.6642 29.431 15.8781L29.8918 15.1291Z" fill="url(#paint5_linear_1_402)"/>
<path d="M29.199 18.817C30.2937 16.9733 30.2937 14.8991 29.199 14.2653C28.1044 13.6316 26.3185 14.611 25.2239 16.5123C24.1293 18.356 24.1293 20.4302 25.2239 21.064C26.3185 21.6977 28.1044 20.6606 29.199 18.817Z" fill="#D7E3DA"/>
<path d="M28.8547 18.5856C29.7764 17.03 29.7764 15.3591 28.8547 14.8406C27.9329 14.3221 26.435 15.1287 25.5708 16.6843C24.6491 18.2399 24.6491 19.9108 25.5708 20.4293C26.4926 21.0054 27.9329 20.1412 28.8547 18.5856Z" fill="#36AB4B"/>
<path d="M28.0461 15.0137L27.2395 17.664L25.396 19.8534C25.6264 20.1415 25.9145 20.3143 26.3178 20.3143L27.2395 17.7216L29.0831 15.4746C28.8526 15.1289 28.507 14.9561 28.0461 15.0137Z" fill="#D7E3DA"/>
<path d="M15.4308 6.60423L15.7189 6.14331L14.509 5.97046C14.1058 5.91284 13.5873 6.02807 13.0688 6.31615C11.5133 7.238 10.2458 9.36977 10.2458 11.0982C10.2458 11.732 10.4187 12.1929 10.7067 12.5386L11.4557 13.3452L11.6861 12.9419C12.0894 12.9419 12.5503 12.8267 13.0112 12.5386C14.5667 11.6744 15.8341 9.54261 15.8341 7.75653C15.8341 7.41084 15.6613 6.94992 15.4308 6.60423Z" fill="url(#paint6_linear_1_402)"/>
<path d="M17.2749 6.83236L16.1227 6.31382C15.5466 6.08336 14.8553 6.08336 13.9911 6.54429C12.2628 7.52375 10.8801 9.88598 10.8801 11.8449C10.8801 12.7667 11.2258 13.4581 11.7443 13.8038L12.6661 14.4376L12.9541 13.9767C13.2998 13.9191 13.6454 13.8038 14.0487 13.5734C15.777 12.5939 17.1597 10.2317 17.1597 8.27275C17.1597 7.92706 17.1021 7.58137 17.0445 7.29329L17.2749 6.83236Z" fill="#DAEBDE"/>
<path d="M17.043 11.7881C18.2528 9.71396 18.2528 7.52457 17.043 6.83318C15.8332 6.1418 13.8744 7.23649 12.6646 9.31065C11.4547 11.3848 11.4547 13.5742 12.6646 14.2656C13.8744 14.957 15.8332 13.8623 17.043 11.7881Z" fill="#CFCFDA"/>
<path d="M17.2178 11.9013C18.4852 9.82718 18.4852 7.52256 17.2178 6.83118C16.008 6.13979 13.9916 7.23449 12.7241 9.36626C11.4567 11.4404 11.4567 13.745 12.7241 14.4364C13.934 15.1278 15.9503 13.9755 17.2178 11.9013Z" fill="#3D424C"/>
<path d="M18.1973 7.4095L17.2755 6.83334L12.609 14.381L13.5308 14.8995L18.1973 7.4095Z" fill="#3D424C"/>
<path d="M17.9662 12.3636C19.2336 10.2894 19.2336 7.98478 17.9662 7.2934C16.7564 6.60201 14.74 7.69671 13.4725 9.82848C12.2051 11.9026 12.2051 14.2072 13.4725 14.8986C14.74 15.59 16.7564 14.4377 17.9662 12.3636Z" fill="#41464F"/>
<path d="M17.4471 12.0751C18.3688 10.5771 18.3688 8.90624 17.4471 8.3877C16.5253 7.86916 15.1426 8.67578 14.2209 10.1738C13.2991 11.6718 13.2991 13.3426 14.2209 13.8612C15.085 14.3797 16.5253 13.5731 17.4471 12.0751Z" fill="#3D424C"/>
<path d="M17.1582 11.9032C17.9647 10.578 17.9647 9.13761 17.1582 8.67669C16.3516 8.21577 15.0842 8.96476 14.2776 10.2899C13.4711 11.6151 13.4711 13.0555 14.2776 13.5164C15.0842 13.9197 16.3516 13.2283 17.1582 11.9032Z" fill="#393842"/>
<path d="M16.8135 11.6718C17.5048 10.5195 17.5048 9.25193 16.8135 8.84862C16.1222 8.44531 15.0276 9.07908 14.3362 10.2314C13.6449 11.3837 13.6449 12.6512 14.3362 13.0545C14.97 13.4578 16.1222 12.8241 16.8135 11.6718Z" fill="#3D424C"/>
<defs>
<linearGradient id="paint0_linear_1_402" x1="19.3422" y1="22.853" x2="-0.184908" y2="33.2325" gradientUnits="userSpaceOnUse">
<stop offset="0.15" stop-color="#EFEFEF"/>
<stop offset="1" stop-color="#E1E1E1"/>
</linearGradient>
<linearGradient id="paint1_linear_1_402" x1="43.1986" y1="29.421" x2="19.3926" y2="24.8081" gradientUnits="userSpaceOnUse">
<stop offset="0.15" stop-color="#E8E8E8"/>
<stop offset="1" stop-color="#BDBDBD"/>
</linearGradient>
<linearGradient id="paint2_linear_1_402" x1="37.6162" y1="19.7505" x2="-8.85112" y2="-3.4899" gradientUnits="userSpaceOnUse">
<stop offset="0.1927" stop-color="#EBEAEA"/>
<stop offset="1" stop-color="white"/>
</linearGradient>
<linearGradient id="paint3_linear_1_402" x1="31.4519" y1="6.38737" x2="18.1407" y2="6.73761" gradientUnits="userSpaceOnUse">
<stop stop-color="#B4CBBA"/>
<stop offset="1" stop-color="#D7E3DA"/>
</linearGradient>
<linearGradient id="paint4_linear_1_402" x1="23.8148" y1="20.3043" x2="26.9683" y2="12.9476" gradientUnits="userSpaceOnUse">
<stop stop-color="#ABD1B3"/>
<stop offset="1" stop-color="white"/>
</linearGradient>
<linearGradient id="paint5_linear_1_402" x1="24.8716" y1="20.7442" x2="27.8402" y2="13.2214" gradientUnits="userSpaceOnUse">
<stop stop-color="#E0F4E4"/>
<stop offset="0.2396" stop-color="#ABD1B3"/>
<stop offset="1" stop-color="white"/>
</linearGradient>
<linearGradient id="paint6_linear_1_402" x1="11.4933" y1="13.0252" x2="14.4335" y2="6.25767" gradientUnits="userSpaceOnUse">
<stop stop-color="#E0F4E4"/>
<stop offset="0.2396" stop-color="#ABD1B3"/>
<stop offset="1" stop-color="white"/>
</linearGradient>
</defs>
</svg>
